<svg width="166" height="226" viewBox="0 0 166 226" fill="none" xmlns="http://www.w3.org/2000/svg">
<g filter="url(#filter0_d_86_475)">
<path fill-rule="evenodd" clip-rule="evenodd" d="M21.5004 21H112.232C120.791 21 128.999 24.4218 135.05 30.5116C141.101 36.6012 144.5 44.8599 144.5 53.4703C144.5 62.0814 141.102 70.3405 135.051 76.4314C129 82.5225 120.792 85.9463 112.232 85.9485H86.0454V112.306C86.0454 120.916 82.6466 129.175 76.5955 135.264C70.5443 141.354 62.3361 144.776 53.7768 144.776C45.2168 144.776 37.008 141.354 30.9555 135.265C24.9031 129.175 21.5026 120.917 21.5004 112.306L21.5004 21ZM24.1743 23.6834V112.305C24.1743 112.305 24.1743 112.305 24.1743 112.305C24.1764 120.207 27.297 127.784 32.8486 133.37C38.4003 138.955 45.9283 142.092 53.7768 142.092C61.6246 142.092 69.1518 138.955 74.7021 133.369C80.2526 127.784 83.3714 120.207 83.3714 112.306V83.2651H112.231C112.232 83.2651 112.231 83.2651 112.231 83.2651C120.08 83.263 127.607 80.1238 133.157 74.5369C138.708 68.9498 141.826 61.3722 141.826 53.4703C141.826 45.5691 138.707 37.9922 133.157 32.4064C127.607 26.8207 120.08 23.6834 112.232 23.6834H24.1743ZM28.0242 27.5327H112.264C119.1 27.5396 125.654 30.2753 130.486 35.1382C135.318 40.001 138.034 46.5936 138.041 53.4689V53.4712C138.037 60.348 135.321 66.9427 130.489 71.8074C125.656 76.6721 119.102 79.4089 112.266 79.4158H84.7409C83.3751 79.4158 82.0643 79.9619 81.0974 80.935C80.1303 81.9082 79.5865 83.2288 79.5865 84.6068V112.306C79.5797 119.181 76.8626 125.775 72.0307 130.638C67.1985 135.501 60.6459 138.236 53.8106 138.243H53.8084C46.9717 138.239 40.4169 135.504 35.583 130.641C30.7491 125.778 28.031 119.184 28.0242 112.307L28.0242 27.5327ZM30.6982 30.2161L30.6982 112.304C30.6982 112.304 30.6982 112.304 30.6982 112.304C30.7044 118.472 33.1425 124.386 37.4761 128.746C41.8093 133.105 47.6834 135.555 53.8089 135.56C59.9331 135.553 65.8056 133.102 70.1373 128.743C74.4693 124.383 76.9064 118.471 76.9125 112.304V84.6068C76.9125 82.5196 77.7363 80.5173 79.204 79.0402C80.6718 77.5631 82.6634 76.7324 84.7409 76.7324H112.263C118.389 76.7263 124.263 74.2741 128.595 69.9129C132.927 65.5519 135.363 59.6386 135.367 53.4707C135.361 47.304 132.924 41.3924 128.592 37.033C124.261 32.6736 118.388 30.2224 112.264 30.2161C112.263 30.2161 112.264 30.2161 112.264 30.2161H30.6982ZM99.763 100.265L100.082 100.267C100.408 100.268 100.732 100.302 101.051 100.367L101.068 100.371L101.084 100.375C108.294 102.048 114.713 106.162 119.269 112.028C123.824 117.893 126.24 125.154 126.113 132.596C125.808 150.431 110.962 164.505 93.2931 164.505H86.0616V172.342C86.061 180.843 82.7477 189.006 76.8319 195.077C70.9161 201.149 62.8694 204.644 54.4199 204.811L54.4067 204.812H53.8093C35.9563 204.812 21.5166 189.69 21.5166 171.721V143.54C21.5134 143.223 21.5726 142.909 21.691 142.614C21.8112 142.316 21.9898 142.045 22.2157 141.818C22.4416 141.59 22.7111 141.41 23.0088 141.289C23.306 141.168 23.6245 141.108 23.9453 141.113L23.9482 141.113C24.309 141.119 24.6644 141.208 24.9869 141.374C25.3075 141.538 25.5853 141.773 25.8008 142.06C26.7922 143.36 27.8746 144.588 29.0394 145.734L29.0459 145.741C29.563 146.256 29.9723 146.87 30.2502 147.547C30.5277 148.222 30.6691 148.946 30.6657 149.676L30.6657 172.34C30.6657 172.34 30.6657 172.34 30.6657 172.34C30.6719 178.508 33.11 184.422 37.4436 188.782C41.7771 193.141 47.6518 195.591 53.7777 195.596H54.4947C67.0143 195.208 76.88 184.52 76.88 171.827V163.171C76.88 161.084 77.7038 159.082 79.1715 157.604C80.6393 156.127 82.6309 155.297 84.7084 155.297H93.3337C105.934 155.297 116.541 145.373 116.924 132.762C117.082 127.386 115.389 122.12 112.131 117.858C108.873 113.595 104.251 110.598 99.0493 109.374L99.0464 109.373C98.0512 109.136 97.1638 108.572 96.5249 107.77C95.8863 106.969 95.5323 105.977 95.5186 104.951C95.5097 104.346 95.6192 103.745 95.8415 103.182C96.0639 102.619 96.3948 102.105 96.8148 101.67C97.2351 101.236 97.7366 100.889 98.2906 100.649C98.7427 100.454 99.2225 100.333 99.7115 100.291L99.763 100.265ZM100.229 102.956L100.077 102.958C99.8265 102.961 99.579 103.014 99.3485 103.114C99.1179 103.213 98.9091 103.358 98.734 103.539C98.5585 103.72 98.4203 103.935 98.3273 104.17C98.2343 104.406 98.1884 104.658 98.1922 104.912L98.1922 104.914C98.1979 105.344 98.3462 105.76 98.613 106.094C98.8794 106.429 99.2486 106.663 99.6614 106.762C105.465 108.128 110.619 111.472 114.252 116.225C117.885 120.978 119.773 126.849 119.597 132.842C119.168 146.966 107.315 157.98 93.3337 157.98H84.7084C83.3426 157.98 82.0318 158.526 81.0649 159.499C80.0978 160.472 79.554 161.793 79.554 163.171V171.827C79.554 185.896 68.6088 197.855 54.5554 198.278L54.5354 198.279H53.7768C46.9401 198.274 40.3844 195.54 35.5505 190.677C30.7166 185.814 27.9986 179.22 27.9918 172.343L27.9918 149.673L27.9918 149.666C27.9938 149.29 27.9212 148.917 27.7784 148.57C27.6361 148.224 27.4271 147.91 27.1636 147.647C26.1079 146.608 25.1151 145.506 24.1905 144.348V171.721C24.1905 188.277 37.5014 202.128 53.8093 202.128H54.3804C62.1228 201.972 69.4969 198.767 74.9201 193.201C80.3466 187.632 83.3872 180.143 83.3877 172.341V161.821H93.2931C109.558 161.821 123.161 148.866 123.44 132.55C123.556 125.721 121.339 119.058 117.16 113.677C112.984 108.301 107.103 104.53 100.499 102.993C100.41 102.975 100.32 102.963 100.229 102.956Z" fill="#10EAB5"/>
</g>
<defs>
<filter id="filter0_d_86_475" x="0.500366" y="0" width="165" height="225.812" filterUnits="userSpaceOnUse" color-interpolation-filters="sRGB">
<feFlood flood-opacity="0" result="BackgroundImageFix"/>
<feColorMatrix in="SourceAlpha" type="matrix" values="0 0 0 0 0 0 0 0 0 0 0 0 0 0 0 0 0 0 127 0" result="hardAlpha"/>
<feOffset/>
<feGaussianBlur stdDeviation="10.5"/>
<feComposite in2="hardAlpha" operator="out"/>
<feColorMatrix type="matrix" values="0 0 0 0 0.0627451 0 0 0 0 0.917647 0 0 0 0 0.709804 0 0 0 1 0"/>
<feBlend mode="normal" in2="BackgroundImageFix" result="effect1_dropShadow_86_475"/>
<feBlend mode="normal" in="SourceGraphic" in2="effect1_dropShadow_86_475" result="shape"/>
</filter>
</defs>
</svg>
