<svg width="60" height="60" viewBox="0 0 60 60" fill="none" xmlns="http://www.w3.org/2000/svg">
    <path d="M41.6405 22.8986C40.512 22.048 39.3052 21.1412 38.1245 20.2414C38.0984 20.2203 38.0723 20.1992 38.0397 20.1781C37.9092 20.0727 37.7592 19.9602 37.5765 19.8969L37.5635 19.8899C34.4062 19.0674 31.1967 18.2238 28.0916 17.4084C25.2735 16.6703 22.462 15.9322 19.6439 15.194C19.5721 15.1729 19.5004 15.1519 19.4221 15.1308C19.1677 15.0534 18.8741 14.9691 18.561 15.0113C18.4697 15.0253 18.3914 15.0605 18.3196 15.1097L18.2414 15.18C18.1174 15.3065 18.0522 15.4682 18.0196 15.5596L18 15.6158V15.9392L18.013 15.9884C19.7939 21.3661 21.6204 26.8212 23.3817 32.1005C24.7386 36.1637 26.1476 40.3745 27.5241 44.5079C27.6089 44.7891 27.8502 44.9719 28.1503 45H28.2155C28.496 45 28.7439 44.8524 28.8679 44.6134L34.0343 36.4941C35.2933 34.5187 36.5523 32.5363 37.8113 30.561C38.3267 29.7526 38.842 28.9371 39.3574 28.1287C40.2054 26.7931 41.0795 25.4152 41.9471 24.0726L41.9928 24.0023V23.9179C42.0124 23.6719 42.0189 23.1657 41.6405 22.8986ZM35.5869 25.8581C34.3736 26.54 33.1341 27.243 31.8882 27.9389C32.6123 27.1024 33.3429 26.2588 34.067 25.4223C34.9737 24.3678 35.9196 23.2782 36.8459 22.2097L36.8655 22.1886C36.9437 22.0761 37.0416 21.9707 37.146 21.8582C37.2177 21.7809 37.296 21.7035 37.3678 21.6122C37.8505 21.9707 38.3397 22.3362 38.8094 22.6947C39.1486 22.9548 39.4944 23.2149 39.8466 23.475C38.4115 24.2624 36.9764 25.0708 35.5869 25.8581ZM32.4687 25.5207C31.5359 26.6103 30.5705 27.728 29.6115 28.8317C27.7524 26.3994 25.8541 23.932 24.0145 21.5489C23.1795 20.4663 22.338 19.3767 21.503 18.2941L21.4965 18.2871C21.3073 18.0551 21.1247 17.8021 20.942 17.563C20.8246 17.4014 20.7007 17.2467 20.5767 17.085C21.3334 17.2959 22.0966 17.4928 22.8468 17.6826C23.5057 17.8513 24.1906 18.027 24.8625 18.2098C28.6461 19.201 32.4361 20.1922 36.2197 21.1833C34.9606 22.6315 33.6951 24.1007 32.4687 25.5207ZM29.1875 39.2216C29.2593 38.4835 29.3375 37.7243 29.4028 36.9791C29.4615 36.3816 29.5202 35.77 29.5789 35.1865C29.6702 34.2516 29.7681 33.2815 29.8464 32.3325L29.8659 32.1638C29.9312 31.5592 29.9964 30.9336 30.0355 30.3079C30.1073 30.2657 30.1856 30.2236 30.2704 30.1884C30.3682 30.1392 30.4661 30.097 30.5639 30.0338C32.0708 29.1832 33.5777 28.3326 35.0911 27.489C36.598 26.6454 38.144 25.7737 39.677 24.9091C38.281 27.0883 36.8785 29.2886 35.5217 31.4327C34.354 33.2674 33.1537 35.1584 31.9599 37.0213C31.4902 37.7664 31.001 38.5256 30.5378 39.2567C30.016 40.0722 29.4811 40.9087 28.9592 41.7452C29.0244 40.9017 29.1027 40.0511 29.1875 39.2216ZM20.094 18.744C20.0092 18.491 19.9179 18.2309 19.8396 17.9848C21.6009 20.2765 23.3752 22.5823 25.1039 24.8177C25.9976 25.9776 26.8913 27.1305 27.785 28.2974C27.9611 28.5153 28.1372 28.7473 28.3069 28.9723C28.5286 29.2605 28.7504 29.5628 28.9918 29.851C28.9135 30.575 28.8483 31.3061 28.7765 32.0091C28.7309 32.5012 28.6852 32.9933 28.633 33.4924V33.4994C28.6135 33.8157 28.5743 34.1321 28.5417 34.4414C28.496 34.8702 28.3917 35.8403 28.3917 35.8403L28.3851 35.8895C28.2677 37.3095 28.1242 38.7436 27.9872 40.1354C27.9285 40.7119 27.8763 41.3024 27.8176 41.8929C27.785 41.7874 27.7459 41.682 27.7132 41.5836C27.6154 41.3024 27.5175 41.0071 27.4262 40.7189L26.7282 38.6311C24.5168 32.0021 22.3054 25.3801 20.094 18.744Z"
          fill="white"/>
</svg>
