<svg width="60" height="60" viewBox="0 0 60 60" fill="none" xmlns="http://www.w3.org/2000/svg">
    <path d="M38.5884 28.7171L38.571 25.0936H38.5845L35.4175 23.2819L29.9905 26.3915L24.5962 23.2819L21.4311 25.0936V28.7171L26.8581 31.8117V38.0159L30.0098 39.8108L33.1614 38.0159V31.8117L38.5884 28.7171Z"
          fill="#F3BA2F"/>
    <path d="M29.9924 14L21.4292 18.9063L24.5808 20.7181L29.9924 17.6085L35.4194 20.7181L38.571 18.9063L29.9924 14Z"
          fill="#F3BA2F"/>
    <path d="M24.5808 33.0946L21.4292 31.2829V34.9064L24.5808 36.7012V33.0946Z" fill="#F3BA2F"/>
    <path d="M29.9924 42.3934L26.8408 40.5816V44.1883L29.9924 46L33.1594 44.1883V40.5816L29.9924 42.3934Z"
          fill="#F3BA2F"/>
    <path d="M40.831 20.1874L37.6794 21.9991L40.831 23.8108V27.4174L43.9981 25.6057V21.9991L40.831 20.1874Z"
          fill="#F3BA2F"/>
    <path d="M40.8484 30L40.831 36.1892L35.4213 39.2819V42.9054L44 38.016V28.1883L40.8484 30Z" fill="#F3BA2F"/>
    <path d="M19.169 36.1892L19.1516 30L16.0019 28.1902V38.0178L24.5806 42.9073V39.2838L19.169 36.1892Z"
          fill="#F3BA2F"/>
    <path d="M19.1516 27.4175V23.8108L22.3187 21.9991L19.1516 20.1874L16 21.9991V25.6057L19.1516 27.4175Z"
          fill="#F3BA2F"/>
    <path d="M29.9922 20.1874L26.8406 21.9991L29.9922 23.8108L33.1592 21.9991L29.9922 20.1874Z" fill="#F3BA2F"/>
    <path d="M38.5706 34.9062L35.419 36.7011V33.0945L38.5706 31.2828V34.9062Z" fill="#F3BA2F"/>
</svg>
