<svg width="100" height="100" viewBox="0 0 100 100" fill="none" xmlns="http://www.w3.org/2000/svg">
    <path d="M49.9991 22.6015L30.5791 42.021L19.2796 30.721L49.9991 0L80.729 30.731L69.429 42.031L49.9991 22.6015Z"
          fill="#F3BA2F"/>
    <path d="M11.3003 38.6981L0 49.9985L11.2997 61.298L22.5999 49.9977L11.3003 38.6981Z" fill="#F3BA2F"/>
    <path d="M49.9991 77.3985L30.5791 57.979L19.2626 69.264L49.9991 100L80.729 69.2695L80.7345 69.2635L69.4285 57.9695L49.9991 77.3985Z"
          fill="#F3BA2F"/>
    <path d="M88.7004 38.7043L77.4001 50.0047L88.6997 61.3043L100 50.004L88.7004 38.7043Z" fill="#F3BA2F"/>
    <path d="M61.4633 49.9919H61.4583L61.4688 49.9974L61.4633 50.0039L49.9969 61.4704L38.5409 50.0139L38.5249 49.9974L38.5409 49.9819L49.9969 38.5254L61.4633 49.9919Z"
          fill="#F3BA2F"/>
</svg>
