<svg width="28" height="32" viewBox="0 0 28 32" fill="none" xmlns="http://www.w3.org/2000/svg">
<path d="M22.5884 14.7171L22.571 11.0936H22.5845L19.4175 9.2819L13.9905 12.3915L8.59623 9.2819L5.4311 11.0936V14.7171L10.8581 17.8117V24.0159L14.0098 25.8108L17.1614 24.0159V17.8117L22.5884 14.7171Z" fill="#F3BA2F"/>
<path d="M13.9924 0L5.42918 4.90634L8.58079 6.71808L13.9924 3.60848L19.4194 6.71808L22.571 4.90634L13.9924 0Z" fill="#F3BA2F"/>
<path d="M8.58079 19.0946L5.42918 17.2829V20.9064L8.58079 22.7012V19.0946Z" fill="#F3BA2F"/>
<path d="M13.9924 28.3934L10.8408 26.5816V30.1883L13.9924 32L17.1594 30.1883V26.5816L13.9924 28.3934Z" fill="#F3BA2F"/>
<path d="M24.831 6.18735L21.6794 7.99909L24.831 9.81084V13.4174L27.9981 11.6057V7.99909L24.831 6.18735Z" fill="#F3BA2F"/>
<path d="M24.8484 16L24.831 22.1892L19.4213 25.2819V28.9054L28 24.016V14.1883L24.8484 16Z" fill="#F3BA2F"/>
<path d="M3.16899 22.1892L3.15162 16L0.00193066 14.1902V24.0178L8.58058 28.9073V25.2838L3.16899 22.1892Z" fill="#F3BA2F"/>
<path d="M3.15162 13.4175V9.81085L6.31867 7.9991L3.15162 6.18736L0 7.9991V11.6057L3.15162 13.4175Z" fill="#F3BA2F"/>
<path d="M13.9922 6.18736L10.8406 7.9991L13.9922 9.81085L17.1592 7.9991L13.9922 6.18736Z" fill="#F3BA2F"/>
<path d="M22.5706 20.9062L19.419 22.7011V19.0945L22.5706 17.2828V20.9062Z" fill="#F3BA2F"/>
</svg>
