<svg width="20" height="20" viewBox="0 0 20 20" fill="none" xmlns="http://www.w3.org/2000/svg">
<path d="M19.625 4.49945C19.625 3.7701 19.3353 3.07063 18.8195 2.5549C18.3038 2.03918 17.6043 1.74945 16.875 1.74945H16.1875V1.08128C16.1875 0.711324 15.903 0.393785 15.5331 0.375308C15.4401 0.37083 15.3472 0.38527 15.26 0.417755C15.1728 0.45024 15.0931 0.500094 15.0257 0.564294C14.9584 0.628494 14.9047 0.705705 14.8681 0.791248C14.8314 0.876791 14.8125 0.968885 14.8125 1.06195V1.74945H5.1875V1.08128C5.1875 0.711324 4.90305 0.393785 4.53309 0.375308C4.44013 0.37083 4.34723 0.38527 4.26002 0.417755C4.17281 0.45024 4.0931 0.500094 4.02573 0.564294C3.95835 0.628494 3.90472 0.705705 3.86806 0.791248C3.83141 0.876791 3.81251 0.968885 3.8125 1.06195V1.74945H3.125C2.39565 1.74945 1.69618 2.03918 1.18046 2.5549C0.664731 3.07063 0.375 3.7701 0.375 4.49945V5.01507C0.375 5.06066 0.393108 5.10437 0.425341 5.13661C0.457574 5.16884 0.501291 5.18695 0.546875 5.18695H19.4531C19.4987 5.18695 19.5424 5.16884 19.5747 5.13661C19.6069 5.10437 19.625 5.06066 19.625 5.01507V4.49945Z" fill="#526476"/>
<path d="M0.375 16.8744C0.375 17.6038 0.664731 18.3033 1.18046 18.819C1.69618 19.3347 2.39565 19.6244 3.125 19.6244H16.875C17.6043 19.6244 18.3038 19.3347 18.8195 18.819C19.3353 18.3033 19.625 17.6038 19.625 16.8744V6.69085C19.625 6.65667 19.6114 6.62388 19.5872 6.5997C19.5631 6.57553 19.5303 6.56195 19.4961 6.56195H0.503906C0.469718 6.56195 0.43693 6.57553 0.412756 6.5997C0.388581 6.62388 0.375 6.65667 0.375 6.69085V16.8744ZM15.1562 7.93695C15.3602 7.93695 15.5596 7.99743 15.7292 8.11074C15.8988 8.22406 16.0309 8.38512 16.109 8.57356C16.1871 8.76199 16.2075 8.96934 16.1677 9.16938C16.1279 9.36943 16.0297 9.55318 15.8855 9.6974C15.7412 9.84163 15.5575 9.93984 15.3574 9.97963C15.1574 10.0194 14.95 9.999 14.7616 9.92095C14.5732 9.8429 14.4121 9.71072 14.2988 9.54113C14.1855 9.37154 14.125 9.17216 14.125 8.9682C14.125 8.69469 14.2336 8.43239 14.427 8.23899C14.6204 8.0456 14.8827 7.93695 15.1562 7.93695ZM15.1562 11.3744C15.3602 11.3744 15.5596 11.4349 15.7292 11.5482C15.8988 11.6616 16.0309 11.8226 16.109 12.0111C16.1871 12.1995 16.2075 12.4068 16.1677 12.6069C16.1279 12.8069 16.0297 12.9907 15.8855 13.1349C15.7412 13.2791 15.5575 13.3773 15.3574 13.4171C15.1574 13.4569 14.95 13.4365 14.7616 13.3584C14.5732 13.2804 14.4121 13.1482 14.2988 12.9786C14.1855 12.809 14.125 12.6097 14.125 12.4057C14.125 12.1322 14.2336 11.8699 14.427 11.6765C14.6204 11.4831 14.8827 11.3744 15.1562 11.3744ZM11.7188 7.93695C11.9227 7.93695 12.1221 7.99743 12.2917 8.11074C12.4613 8.22406 12.5934 8.38512 12.6715 8.57356C12.7496 8.76199 12.77 8.96934 12.7302 9.16938C12.6904 9.36943 12.5922 9.55318 12.448 9.6974C12.3037 9.84163 12.12 9.93984 11.9199 9.97963C11.7199 10.0194 11.5125 9.999 11.3241 9.92095C11.1357 9.8429 10.9746 9.71072 10.8613 9.54113C10.748 9.37154 10.6875 9.17216 10.6875 8.9682C10.6875 8.69469 10.7962 8.43239 10.9895 8.23899C11.1829 8.0456 11.4452 7.93695 11.7188 7.93695ZM11.7188 11.3744C11.9227 11.3744 12.1221 11.4349 12.2917 11.5482C12.4613 11.6616 12.5934 11.8226 12.6715 12.0111C12.7496 12.1995 12.77 12.4068 12.7302 12.6069C12.6904 12.8069 12.5922 12.9907 12.448 13.1349C12.3037 13.2791 12.12 13.3773 11.9199 13.4171C11.7199 13.4569 11.5125 13.4365 11.3241 13.3584C11.1357 13.2804 10.9746 13.1482 10.8613 12.9786C10.748 12.809 10.6875 12.6097 10.6875 12.4057C10.6875 12.1322 10.7962 11.8699 10.9895 11.6765C11.1829 11.4831 11.4452 11.3744 11.7188 11.3744ZM11.7188 14.8119C11.9227 14.8119 12.1221 14.8724 12.2917 14.9857C12.4613 15.0991 12.5934 15.2601 12.6715 15.4486C12.7496 15.637 12.77 15.8443 12.7302 16.0444C12.6904 16.2444 12.5922 16.4282 12.448 16.5724C12.3037 16.7166 12.12 16.8148 11.9199 16.8546C11.7199 16.8944 11.5125 16.874 11.3241 16.7959C11.1357 16.7179 10.9746 16.5857 10.8613 16.4161C10.748 16.2465 10.6875 16.0472 10.6875 15.8432C10.6875 15.5697 10.7962 15.3074 10.9895 15.114C11.1829 14.9206 11.4452 14.8119 11.7188 14.8119ZM8.28125 11.3744C8.48521 11.3744 8.68459 11.4349 8.85418 11.5482C9.02377 11.6616 9.15595 11.8226 9.234 12.0111C9.31205 12.1995 9.33248 12.4068 9.29268 12.6069C9.25289 12.8069 9.15468 12.9907 9.01045 13.1349C8.86623 13.2791 8.68248 13.3773 8.48244 13.4171C8.28239 13.4569 8.07504 13.4365 7.88661 13.3584C7.69817 13.2804 7.53711 13.1482 7.4238 12.9786C7.31048 12.809 7.25 12.6097 7.25 12.4057C7.25 12.1322 7.35865 11.8699 7.55205 11.6765C7.74544 11.4831 8.00775 11.3744 8.28125 11.3744ZM8.28125 14.8119C8.48521 14.8119 8.68459 14.8724 8.85418 14.9857C9.02377 15.0991 9.15595 15.2601 9.234 15.4486C9.31205 15.637 9.33248 15.8443 9.29268 16.0444C9.25289 16.2444 9.15468 16.4282 9.01045 16.5724C8.86623 16.7166 8.68248 16.8148 8.48244 16.8546C8.28239 16.8944 8.07504 16.874 7.88661 16.7959C7.69817 16.7179 7.53711 16.5857 7.4238 16.4161C7.31048 16.2465 7.25 16.0472 7.25 15.8432C7.25 15.5697 7.35865 15.3074 7.55205 15.114C7.74544 14.9206 8.00775 14.8119 8.28125 14.8119ZM4.84375 11.3744C5.04771 11.3744 5.24709 11.4349 5.41668 11.5482C5.58627 11.6616 5.71845 11.8226 5.7965 12.0111C5.87455 12.1995 5.89498 12.4068 5.85519 12.6069C5.81539 12.8069 5.71718 12.9907 5.57295 13.1349C5.42873 13.2791 5.24498 13.3773 5.04494 13.4171C4.84489 13.4569 4.63754 13.4365 4.44911 13.3584C4.26067 13.2804 4.09961 13.1482 3.9863 12.9786C3.87298 12.809 3.8125 12.6097 3.8125 12.4057C3.8125 12.1322 3.92115 11.8699 4.11455 11.6765C4.30794 11.4831 4.57025 11.3744 4.84375 11.3744ZM4.84375 14.8119C5.04771 14.8119 5.24709 14.8724 5.41668 14.9857C5.58627 15.0991 5.71845 15.2601 5.7965 15.4486C5.87455 15.637 5.89498 15.8443 5.85519 16.0444C5.81539 16.2444 5.71718 16.4282 5.57295 16.5724C5.42873 16.7166 5.24498 16.8148 5.04494 16.8546C4.84489 16.8944 4.63754 16.874 4.44911 16.7959C4.26067 16.7179 4.09961 16.5857 3.9863 16.4161C3.87298 16.2465 3.8125 16.0472 3.8125 15.8432C3.8125 15.5697 3.92115 15.3074 4.11455 15.114C4.30794 14.9206 4.57025 14.8119 4.84375 14.8119Z" fill="#526476"/>
</svg>
