<svg width="680" height="360" viewBox="0 0 680 360" fill="none" xmlns="http://www.w3.org/2000/svg">
    <mask id="mask0_0_74" style="mask-type:alpha" maskUnits="userSpaceOnUse" x="0" y="0" width="680" height="360">
        <rect width="680" height="360" rx="30" fill="url(#paint0_linear_0_74)"/>
    </mask>
    <g mask="url(#mask0_0_74)">
        <path opacity="0.05" d="M-90.8372 0L353 0L219 360H-225L-90.8372 0Z" fill="url(#paint1_linear_0_74)"/>
        <path opacity="0.05" d="M627 0L935 0L809.354 360H493L627 0Z" fill="url(#paint2_linear_0_74)"/>
        <path opacity="0.1"
              d="M154.392 -14H-41V178.714C-40.9953 196.401 -33.8687 213.361 -21.187 225.866C-8.50524 238.371 8.69298 245.396 26.6253 245.396C44.556 245.396 61.7526 238.37 74.4315 225.865C87.1104 213.36 94.2333 196.399 94.2333 178.714V119.38H154.392C172.324 119.375 189.521 112.346 202.199 99.838C214.878 87.33 222 70.368 222 52.6814C222 34.9964 214.877 18.0355 202.198 5.53038C189.519 -6.97477 172.323 -14 154.392 -14ZM26.6963 231.402C12.5299 231.392 -1.05376 225.839 -11.0726 215.961C-21.0915 206.082 -26.7265 192.686 -26.7406 178.714V-0.00604534H154.463C168.626 0.00784752 182.206 5.56344 192.221 15.4412C202.236 25.319 207.868 38.7121 207.882 52.6814C207.873 66.6537 202.242 80.0512 192.227 89.9327C182.211 99.8142 168.629 105.372 154.463 105.386H94.3043C90.5413 105.386 86.9322 106.86 84.2714 109.485C81.6105 112.109 80.1159 115.668 80.1159 119.38V178.714C80.1018 192.683 74.469 206.077 64.454 215.954C54.439 225.832 40.8597 231.388 26.6963 231.402ZM127.789 155.817C126.856 155.828 125.934 156.021 125.076 156.384C124.219 156.748 123.443 157.274 122.792 157.934C122.141 158.593 121.629 159.373 121.284 160.229C120.939 161.084 120.769 161.998 120.783 162.918C120.804 164.478 121.353 165.987 122.343 167.204C123.333 168.421 124.707 169.277 126.246 169.636C138.273 172.411 148.958 179.202 156.489 188.859C164.021 198.515 167.935 210.443 167.569 222.62C166.683 251.255 142.137 273.681 113.086 273.681H94.2333C90.4703 273.681 86.8612 275.155 84.2003 277.78C81.5395 280.404 80.0449 283.963 80.0449 287.675V306.217C80.0449 334.887 57.2903 359.149 28.2395 360.006H26.6253C12.4589 359.997 -1.12478 354.443 -11.1436 344.565C-21.1625 334.687 -26.7975 321.291 -26.8116 307.319V258.76C-26.8051 257.573 -27.0389 256.398 -27.4988 255.301C-27.9586 254.205 -28.6353 253.21 -29.4897 252.375C-32.1372 249.822 -34.5971 247.087 -36.8502 244.189C-37.0576 243.917 -37.3248 243.695 -37.6322 243.54C-37.9395 243.386 -38.2788 243.303 -38.6237 243.297C-38.9325 243.292 -39.239 243.348 -39.5252 243.463C-39.8114 243.577 -40.0711 243.747 -40.2895 243.962C-40.5078 244.178 -40.6801 244.434 -40.7961 244.716C-40.912 244.998 -40.9693 245.301 -40.9645 245.605V305.989C-40.9645 342.968 -10.6369 374 26.6963 374H27.9732C45.674 373.657 62.5327 366.48 74.9282 354.013C87.3237 341.545 94.2676 324.78 94.2688 307.319V287.657H112.997C150.082 287.657 181.173 258.707 181.811 222.13C182.078 206.844 177.014 191.931 167.468 179.886C157.922 167.84 144.472 159.393 129.367 155.956C128.859 155.854 128.343 155.801 127.824 155.799L127.789 155.817Z"
              fill="#10EAB5"/>
        <circle opacity="0.1" cx="538.584" cy="335.061" r="117.5" transform="rotate(-12.1408 538.584 335.061)"
                fill="url(#paint3_radial_0_74)"/>
        <circle opacity="0.1" cx="64.0044" cy="-27.9969" r="101.5" transform="rotate(-15.5578 64.0044 -27.9969)"
                fill="url(#paint4_radial_0_74)"/>
        <circle opacity="0.1" cx="640.309" cy="289.652" r="128.5" transform="rotate(-12.1408 640.309 289.652)"
                fill="url(#paint5_radial_0_74)"/>
        <circle opacity="0.1" cx="528.5" cy="24.5" r="128.5" fill="url(#paint6_radial_0_74)"/>
        <circle opacity="0.1" cx="124.689" cy="-13.2304" r="72" transform="rotate(-15.5578 124.689 -13.2304)"
                fill="url(#paint7_radial_0_74)"/>
    </g>
    <defs>
        <linearGradient id="paint0_linear_0_74" x1="340" y1="0" x2="340" y2="360" gradientUnits="userSpaceOnUse">
            <stop stop-color="#19242D"/>
            <stop offset="1" stop-color="#19242D"/>
        </linearGradient>
        <linearGradient id="paint1_linear_0_74" x1="-23.7557" y1="-8.18185" x2="-6.51526" y2="359.191"
                        gradientUnits="userSpaceOnUse">
            <stop stop-color="#D9D9D9"/>
            <stop offset="1" stop-color="#D9D9D9" stop-opacity="0"/>
            <stop offset="1" stop-color="#D9D9D9" stop-opacity="0"/>
        </linearGradient>
        <linearGradient id="paint2_linear_0_74" x1="639.636" y1="-1.1696e-08" x2="639.681" y2="360"
                        gradientUnits="userSpaceOnUse">
            <stop stop-color="#D9D9D9" stop-opacity="0"/>
            <stop offset="1" stop-color="#D9D9D9" stop-opacity="0.3"/>
        </linearGradient>
        <radialGradient id="paint3_radial_0_74" cx="0" cy="0" r="1" gradientUnits="userSpaceOnUse"
                        gradientTransform="translate(538.584 335.061) rotate(90) scale(117.5)">
            <stop stop-color="#10EAB5"/>
            <stop offset="1" stop-color="#10EAB5" stop-opacity="0"/>
        </radialGradient>
        <radialGradient id="paint4_radial_0_74" cx="0" cy="0" r="1" gradientUnits="userSpaceOnUse"
                        gradientTransform="translate(64.0044 -27.9969) rotate(90) scale(101.5)">
            <stop stop-color="#10EAB5"/>
            <stop offset="1" stop-color="#10EAB5" stop-opacity="0"/>
        </radialGradient>
        <radialGradient id="paint5_radial_0_74" cx="0" cy="0" r="1" gradientUnits="userSpaceOnUse"
                        gradientTransform="translate(640.309 289.652) rotate(90) scale(128.5)">
            <stop stop-color="#EA1010"/>
            <stop offset="1" stop-color="#EA1010" stop-opacity="0"/>
        </radialGradient>
        <radialGradient id="paint6_radial_0_74" cx="0" cy="0" r="1" gradientUnits="userSpaceOnUse"
                        gradientTransform="translate(528.5 24.5) rotate(90) scale(128.5)">
            <stop stop-color="#EA1010"/>
            <stop offset="1" stop-color="#EA1010" stop-opacity="0"/>
        </radialGradient>
        <radialGradient id="paint7_radial_0_74" cx="0" cy="0" r="1" gradientUnits="userSpaceOnUse"
                        gradientTransform="translate(124.689 -13.2304) rotate(90) scale(72)">
            <stop stop-color="#EA1010"/>
            <stop offset="1" stop-color="#EA1010" stop-opacity="0"/>
        </radialGradient>
    </defs>
</svg>
