<svg width="14" height="14" viewBox="0 0 14 14" fill="none" xmlns="http://www.w3.org/2000/svg">
<path d="M8.59216 7.00049L13.0453 2.54736C13.2566 2.33639 13.3755 2.0501 13.3758 1.75148C13.376 1.45286 13.2577 1.16636 13.0467 0.955018C12.8357 0.743674 12.5494 0.624793 12.2508 0.62453C11.9522 0.624266 11.6657 0.74264 11.4543 0.953612L7.00122 5.40674L2.54809 0.953612C2.33675 0.742267 2.05011 0.623535 1.75122 0.623535C1.45233 0.623535 1.16569 0.742267 0.954344 0.953612C0.743 1.16496 0.624268 1.4516 0.624268 1.75049C0.624268 2.04937 0.743 2.33602 0.954344 2.54736L5.40747 7.00049L0.954344 11.4536C0.743 11.665 0.624268 11.9516 0.624268 12.2505C0.624268 12.5494 0.743 12.836 0.954344 13.0474C1.16569 13.2587 1.45233 13.3774 1.75122 13.3774C2.05011 13.3774 2.33675 13.2587 2.54809 13.0474L7.00122 8.59424L11.4543 13.0474C11.6657 13.2587 11.9523 13.3774 12.2512 13.3774C12.5501 13.3774 12.8367 13.2587 13.0481 13.0474C13.2594 12.836 13.3782 12.5494 13.3782 12.2505C13.3782 11.9516 13.2594 11.665 13.0481 11.4536L8.59216 7.00049Z" fill="currentColor"/>
</svg>
