<svg width="36" height="36" viewBox="0 0 36 36" fill="none" xmlns="http://www.w3.org/2000/svg">
    <path d="M29.875 35.5H12.375C10.8832 35.5 9.45242 34.9074 8.39752 33.8525C7.34263 32.7976 6.75 31.3668 6.75 29.875V12.375C6.75 10.8832 7.34263 9.45242 8.39752 8.39752C9.45242 7.34263 10.8832 6.75 12.375 6.75H29.875C31.3668 6.75 32.7976 7.34263 33.8525 8.39752C34.9074 9.45242 35.5 10.8832 35.5 12.375V29.875C35.5 31.3668 34.9074 32.7976 33.8525 33.8525C32.7976 34.9074 31.3668 35.5 29.875 35.5Z"
          fill="currentColor"/>
    <path d="M10.5 4.25H28.9281C28.5392 3.1541 27.8207 2.20537 26.8713 1.53397C25.9218 0.862578 24.7879 0.501404 23.625 0.5H6.125C4.63316 0.5 3.20242 1.09263 2.14752 2.14752C1.09263 3.20242 0.5 4.63316 0.5 6.125V23.625C0.501404 24.7879 0.862578 25.9218 1.53397 26.8713C2.20537 27.8207 3.1541 28.5392 4.25 28.9281V10.5C4.25 8.8424 4.90848 7.25269 6.08058 6.08058C7.25269 4.90848 8.8424 4.25 10.5 4.25Z"
          fill="currentColor"/>
</svg>
