<svg
        xmlns="http://www.w3.org/2000/svg"
        width="14"
        height="14"
        viewBox="0 0 14 14"
        fill="none"
>
    <path
            fill-rule="evenodd"
            clip-rule="evenodd"
            d="M6.99992 1.33337C3.87525 1.33337 1.33325 3.87537 1.33325 7.00004C1.33325 10.1247 3.87525 12.6667 6.99992 12.6667C10.1246 12.6667 12.6666 10.1247 12.6666 7.00004C12.6666 3.87537 10.1246 1.33337 6.99992 1.33337M6.99992 13.6667C3.32392 13.6667 0.333252 10.676 0.333252 7.00004C0.333252 3.32404 3.32392 0.333374 6.99992 0.333374C10.6759 0.333374 13.6666 3.32404 13.6666 7.00004C13.6666 10.676 10.6759 13.6667 6.99992 13.6667"
            fill="#C24E4E"
    />
    <path
            fill-rule="evenodd"
            clip-rule="evenodd"
            d="M6.99609 7.91536C6.72009 7.91536 6.49609 7.69136 6.49609 7.41536V4.46936C6.49609 4.19336 6.72009 3.96936 6.99609 3.96936C7.27209 3.96936 7.49609 4.19336 7.49609 4.46936V7.41536C7.49609 7.69136 7.27209 7.91536 6.99609 7.91536"
            fill="#C24E4E"
    />
    <path
            fill-rule="evenodd"
            clip-rule="evenodd"
            d="M7.00252 10.1973C6.63385 10.1973 6.33252 9.89935 6.33252 9.53068C6.33252 9.16201 6.62785 8.86401 6.99585 8.86401H7.00252C7.37119 8.86401 7.66919 9.16201 7.66919 9.53068C7.66919 9.89935 7.37119 10.1973 7.00252 10.1973"
            fill="#C24E4E"
    />
</svg>