<svg
        xmlns="http://www.w3.org/2000/svg"
        width="20"
        height="20"
        viewBox="0 0 20 20"
        fill="none"
>
    <path
            d="M16.875 17.4997C16.7929 17.4998 16.7116 17.4837 16.6358 17.4522C16.56 17.4208 16.4911 17.3747 16.4332 17.3165L2.6832 3.56647C2.57094 3.4483 2.50928 3.29096 2.51136 3.12799C2.51345 2.96501 2.57912 2.8093 2.69437 2.69404C2.80962 2.57879 2.96534 2.51312 3.12831 2.51104C3.29129 2.50895 3.44863 2.57061 3.56679 2.68287L17.3168 16.4329C17.4041 16.5203 17.4636 16.6316 17.4877 16.7528C17.5118 16.874 17.4994 16.9996 17.4522 17.1138C17.4049 17.228 17.3248 17.3256 17.2221 17.3942C17.1194 17.4629 16.9986 17.4996 16.875 17.4997Z"
            fill="currentColor"
    />
    <path
            d="M9.6875 12.3376L7.66445 10.3145C7.65286 10.303 7.63796 10.2954 7.62184 10.2929C7.60572 10.2903 7.58919 10.2928 7.57458 10.3001C7.55997 10.3074 7.54801 10.319 7.54038 10.3335C7.53275 10.3479 7.52983 10.3644 7.53203 10.3805C7.6137 10.9054 7.86014 11.3907 8.23574 11.7663C8.61133 12.1419 9.09663 12.3883 9.62148 12.47C9.63766 12.4722 9.65412 12.4693 9.66855 12.4616C9.68298 12.454 9.69466 12.442 9.70194 12.4274C9.70923 12.4128 9.71175 12.3963 9.70916 12.3802C9.70657 12.3641 9.69899 12.3492 9.6875 12.3376Z"
            fill="currentColor"
    />
    <path
            d="M10.3125 7.66178L12.3387 9.68717C12.3502 9.69883 12.3652 9.70655 12.3814 9.70923C12.3976 9.71191 12.4142 9.70942 12.4289 9.70211C12.4436 9.6948 12.4556 9.68305 12.4633 9.66852C12.4709 9.65398 12.4738 9.63741 12.4715 9.62116C12.39 9.09559 12.1434 8.60959 11.7673 8.23352C11.3913 7.85745 10.9053 7.61082 10.3797 7.52936C10.3634 7.52685 10.3468 7.52954 10.3321 7.53706C10.3175 7.54458 10.3056 7.55654 10.2981 7.57122C10.2907 7.58591 10.288 7.60257 10.2906 7.61884C10.2932 7.6351 10.3009 7.65013 10.3125 7.66178Z"
            fill="currentColor"
    />
    <path
            d="M19.1797 10.6778C19.309 10.4748 19.3774 10.239 19.3767 9.99832C19.376 9.75764 19.3063 9.52222 19.1758 9.31998C18.1422 7.72155 16.8012 6.36373 15.298 5.39303C13.6328 4.31803 11.7969 3.74967 9.9875 3.74967C9.03363 3.75098 8.08625 3.9065 7.18203 4.21022C7.15672 4.21864 7.13399 4.23339 7.116 4.25308C7.09801 4.27277 7.08535 4.29673 7.07925 4.3227C7.07314 4.34866 7.07377 4.37575 7.0811 4.4014C7.08842 4.42704 7.10219 4.45038 7.12109 4.4692L8.9664 6.31452C8.98557 6.33372 9.00941 6.3476 9.03558 6.35479C9.06174 6.36199 9.08933 6.36224 9.11562 6.35553C9.74111 6.2031 10.3953 6.21427 11.0152 6.38796C11.6352 6.56166 12.1999 6.89202 12.6551 7.34725C13.1104 7.80249 13.4407 8.36725 13.6144 8.98717C13.7881 9.60709 13.7993 10.2613 13.6469 10.8868C13.6402 10.913 13.6405 10.9405 13.6477 10.9666C13.6549 10.9927 13.6687 11.0165 13.6879 11.0356L16.3422 13.6919C16.3698 13.7195 16.4068 13.7358 16.4458 13.7376C16.4849 13.7393 16.5232 13.7263 16.5531 13.7012C17.5748 12.8304 18.4602 11.8112 19.1797 10.6778Z"
            fill="currentColor"
    />
    <path
            d="M10 13.7497C9.43232 13.7497 8.87204 13.6209 8.36141 13.3728C7.85078 13.1248 7.40312 12.7641 7.05219 12.3179C6.70125 11.8717 6.4562 11.3516 6.33552 10.7969C6.21483 10.2422 6.22165 9.66737 6.35547 9.11569C6.3621 9.08945 6.36181 9.06194 6.35462 9.03585C6.34743 9.00976 6.33359 8.98599 6.31445 8.96686L3.70351 6.35475C3.67583 6.32703 3.63874 6.31073 3.5996 6.30906C3.56046 6.3074 3.52212 6.3205 3.49219 6.34577C2.53945 7.15866 1.65625 8.14772 0.848826 9.30358C0.707492 9.50643 0.629654 9.74672 0.625202 9.99392C0.620751 10.2411 0.689887 10.484 0.823826 10.6919C1.85547 12.3063 3.18281 13.6661 4.66289 14.6235C6.33047 15.7028 8.12187 16.2497 9.9875 16.2497C10.951 16.2471 11.9082 16.0949 12.825 15.7985C12.8505 15.7903 12.8735 15.7758 12.8918 15.7561C12.9101 15.7365 12.923 15.7125 12.9293 15.6865C12.9356 15.6604 12.9351 15.6332 12.9279 15.6074C12.9206 15.5816 12.9069 15.5581 12.8879 15.5391L11.0336 13.6852C11.0145 13.6661 10.9907 13.6522 10.9646 13.645C10.9385 13.6379 10.911 13.6376 10.8848 13.6442C10.5951 13.7144 10.2981 13.7498 10 13.7497Z"
            fill="currentColor"
    />
</svg>
