<svg
        xmlns="http://www.w3.org/2000/svg"
        width="20"
        height="20"
        viewBox="0 0 20 20"
        fill="none"
>
    <path
            d="M9.99956 12.5C11.3803 12.5 12.4996 11.3807 12.4996 10C12.4996 8.61929 11.3803 7.5 9.99956 7.5C8.61885 7.5 7.49956 8.61929 7.49956 10C7.49956 11.3807 8.61885 12.5 9.99956 12.5Z"
            fill="currentColor"
    />
    <path
            d="M19.173 9.32031C18.1394 7.72188 16.7984 6.36406 15.2953 5.39336C13.6324 4.31836 11.7964 3.75 9.98628 3.75C8.32534 3.75 6.69214 4.22461 5.13198 5.16055C3.54096 6.11484 2.09956 7.50898 0.847605 9.30391C0.706271 9.50676 0.628433 9.74705 0.623981 9.99425C0.61953 10.2414 0.688666 10.4844 0.822605 10.6922C1.85425 12.3066 3.18198 13.6664 4.66167 14.6238C6.32768 15.7031 8.12065 16.25 9.98628 16.25C11.8109 16.25 13.6507 15.6863 15.3066 14.6203C16.8089 13.6527 18.1472 12.2898 19.1769 10.6781C19.3062 10.4751 19.3746 10.2393 19.3739 9.99865C19.3732 9.75797 19.3035 9.52255 19.173 9.32031ZM9.99956 13.75C9.25788 13.75 8.53285 13.5301 7.91617 13.118C7.29948 12.706 6.81884 12.1203 6.53501 11.4351C6.25118 10.7498 6.17692 9.99584 6.32161 9.26841C6.46631 8.54098 6.82346 7.8728 7.34791 7.34835C7.87235 6.8239 8.54054 6.46675 9.26797 6.32206C9.9954 6.17736 10.7494 6.25162 11.4346 6.53545C12.1198 6.81928 12.7055 7.29993 13.1176 7.91661C13.5296 8.5333 13.7496 9.25832 13.7496 10C13.7484 10.9942 13.353 11.9474 12.65 12.6504C11.9469 13.3534 10.9938 13.7489 9.99956 13.75Z"
            fill="currentColor"
    />
</svg>