<svg width="24" height="24" viewBox="0 0 24 24" fill="none" xmlns="http://www.w3.org/2000/svg">
<path fill-rule="evenodd" clip-rule="evenodd" d="M7.29299 4.87497H19.4766C19.6518 4.87488 19.8268 4.886 20.0006 4.90825C19.9417 4.4947 19.7997 4.09737 19.583 3.74021C19.3664 3.38305 19.0797 3.07345 18.7402 2.83009C18.4007 2.58673 18.0154 2.41464 17.6076 2.3242C17.1998 2.23377 16.7779 2.22685 16.3673 2.30387L4.51768 4.32692C4.35556 4.35176 4.19166 4.37934 4.02756 4.40997H4.01718C3.94476 4.42381 3.87309 4.4402 3.80229 4.45905C2.02135 4.90724 1.5 6.52208 1.5 7.5V8.6287C1.4846 8.75123 1.4767 8.87521 1.47656 9V18C1.47743 18.7954 1.79378 19.5579 2.3562 20.1204C2.91862 20.6828 3.68118 20.9991 4.47656 21H19.4766C20.2719 20.9991 21.0345 20.6828 21.5969 20.1204C22.1593 19.5579 22.4757 18.7954 22.4766 18V9C22.4757 8.20462 22.1593 7.44206 21.5969 6.87964C21.0345 6.31722 20.2719 6.00087 19.4766 6H7.5C6.7064 6 6.61943 5.03819 7.29299 4.87497ZM17.25 15C16.9533 15 16.6633 14.912 16.4166 14.7472C16.17 14.5824 15.9777 14.3481 15.8642 14.074C15.7506 13.7999 15.7209 13.4983 15.7788 13.2074C15.8367 12.9164 15.9796 12.6491 16.1893 12.4393C16.3991 12.2296 16.6664 12.0867 16.9574 12.0288C17.2483 11.9709 17.5499 12.0006 17.824 12.1142C18.0981 12.2277 18.3324 12.42 18.4972 12.6666C18.662 12.9133 18.75 13.2033 18.75 13.5C18.75 13.8978 18.592 14.2794 18.3107 14.5607C18.0294 14.842 17.6478 15 17.25 15Z" fill="currentColor"/>
</svg>
