<svg width="40" height="40" viewBox="0 0 40 40" fill="none" xmlns="http://www.w3.org/2000/svg">
    <g filter="url(#filter0_d_125_5213)">
        <path fill-rule="evenodd" clip-rule="evenodd"
              d="M13.6001 8.80078H24.0797C25.1199 8.80078 26.1172 9.23964 26.8522 10.0204C27.5874 10.8011 28.0001 11.8597 28.0001 12.9632C28.0001 14.0668 27.5874 15.1254 26.8524 15.9062C26.1173 16.6872 25.1201 17.1263 24.0799 17.1266H21.4417V19.9297C21.4417 21.0332 21.029 22.0918 20.2939 22.8726C19.5588 23.6533 18.5615 24.0921 17.5214 24.0921C16.4812 24.0921 15.4838 23.6533 14.7485 22.8726C14.0133 22.0919 13.6004 21.0334 13.6001 19.9298V8.80078ZM14.0501 19.9297C14.0503 20.9073 14.4162 21.8449 15.0671 22.536C15.7181 23.2272 16.6009 23.6156 17.5214 23.6156C18.4417 23.6156 19.3245 23.2272 19.9752 22.536C20.6261 21.8448 20.9916 20.9072 20.9916 19.9298L20.9917 16.65H24.0797C25.0002 16.6497 25.8829 16.2612 26.5337 15.5698C27.1845 14.8785 27.5501 13.9408 27.5501 12.9632C27.5501 11.9857 27.1844 11.0482 26.5336 10.3569C25.8828 9.6657 25.0001 9.27738 24.0797 9.27738H14.0501V19.9297ZM22.716 18.663C22.7426 18.6632 22.7691 18.6661 22.7951 18.6718C23.5705 18.8617 24.2609 19.3286 24.7509 19.9944C25.241 20.6603 25.5009 21.4846 25.4872 22.3295C25.4544 24.3513 23.8585 25.9515 21.9549 25.9515H20.9935V27.0384C20.9935 28.0036 20.637 28.9303 20.0008 29.6193C19.3645 30.3085 18.4992 30.7052 17.5905 30.7242H17.525C15.6086 30.7242 14.0519 29.0088 14.0519 26.9648V23.6272C14.0517 23.6103 14.0546 23.5936 14.0606 23.578C14.0665 23.5624 14.0754 23.5482 14.0866 23.5363C14.0978 23.5244 14.1111 23.5151 14.1258 23.5087C14.1405 23.5024 14.1562 23.4993 14.1721 23.4995C14.1898 23.4998 14.2072 23.5044 14.223 23.513C14.2387 23.5215 14.2525 23.5338 14.2631 23.5488C14.2811 23.5737 14.2993 23.5983 14.3177 23.6228C14.3188 23.6243 14.3199 23.6257 14.321 23.6272C14.3449 23.6587 14.3693 23.6899 14.394 23.7207C14.4152 23.747 14.4366 23.7731 14.4584 23.7989C14.4728 23.816 14.4873 23.8329 14.5019 23.8497C14.5471 23.9014 14.5934 23.952 14.6409 24.0013C14.6848 24.0475 14.7195 24.1025 14.7431 24.1631C14.7667 24.2236 14.7787 24.2887 14.7784 24.3542V27.0384C14.7791 27.8106 15.0684 28.5511 15.5826 29.0971C16.097 29.6432 16.7942 29.9501 17.5214 29.9507H17.6042C19.0954 29.9033 20.2634 28.5622 20.2634 26.9774V25.9526C20.2634 25.7474 20.3401 25.5507 20.4767 25.4056C20.6133 25.2605 20.7986 25.179 20.9917 25.179H21.9595C23.4507 25.179 24.7106 23.9394 24.7561 22.3566C24.7749 21.6835 24.574 21.0242 24.1874 20.4904C23.8008 19.9566 23.2523 19.5812 22.6349 19.4279C22.5559 19.408 22.4854 19.3608 22.4346 19.2935C22.3838 19.2262 22.3557 19.1429 22.3546 19.0566C22.3539 19.0058 22.3626 18.9552 22.3802 18.9079C22.398 18.8606 22.4242 18.8175 22.4576 18.7811C22.4911 18.7446 22.5309 18.7155 22.5749 18.6954C22.6189 18.6754 22.6667 18.6642 22.7147 18.6635L22.716 18.663ZM22.586 18.199L22.6104 18.186L22.7179 18.1865C22.7741 18.1868 22.8303 18.1929 22.8857 18.205L22.8912 18.2061L22.8966 18.2075C23.7726 18.422 24.5525 18.9496 25.1059 19.7015C25.6592 20.4534 25.9525 21.384 25.9371 22.3378C25.8999 24.6293 24.0946 26.4282 21.9549 26.4282H21.4435V27.0384C21.4435 28.1279 21.0411 29.1742 20.3226 29.9526C19.6039 30.7309 18.6262 31.1792 17.5994 31.2007L17.595 31.2008H17.525C15.3486 31.2008 13.6019 29.2597 13.6019 26.9648V23.6294C13.6014 23.5507 13.6154 23.4726 13.6433 23.3994C13.6719 23.3246 13.7143 23.2567 13.7679 23.1998C13.8216 23.1428 13.8856 23.0977 13.9564 23.0672C14.0271 23.0367 14.1028 23.0217 14.1791 23.023H14.1801C14.2661 23.0246 14.3509 23.047 14.4279 23.0887C14.5041 23.13 14.57 23.1888 14.6212 23.2603C14.7237 23.402 14.8356 23.536 14.956 23.661L14.9571 23.6622L14.9581 23.6633C15.0445 23.7542 15.1128 23.8623 15.1591 23.9814C15.2053 24.0999 15.2289 24.2269 15.2284 24.3553V27.0381C15.2291 27.6845 15.4712 28.304 15.9012 28.7606C16.3313 29.2172 16.9141 29.4736 17.5217 29.4741H17.5972C18.8288 29.4312 19.8134 28.3167 19.8134 26.9774V25.9526C19.8134 25.6214 19.9373 25.3036 20.1581 25.0691C20.379 24.8344 20.6788 24.7024 20.9917 24.7024H21.9595C23.2181 24.7024 24.2683 23.6564 24.3063 22.3424C24.322 21.7789 24.1538 21.2271 23.8303 20.7805C23.5068 20.3339 23.0482 20.0201 22.5321 19.8919L22.5312 19.8917C22.3543 19.8472 22.1966 19.7414 22.0832 19.5911C21.9698 19.4411 21.907 19.2551 21.9046 19.0631C21.903 18.95 21.9225 18.8376 21.9619 18.7323C22.0014 18.6268 22.0601 18.5306 22.1347 18.4492C22.2093 18.3677 22.2984 18.3027 22.3969 18.2577C22.4575 18.2301 22.5211 18.2104 22.586 18.199ZM15.9049 21.6519C16.3348 22.1084 16.9175 22.3649 17.5249 22.3654C18.1321 22.3647 18.7147 22.1082 19.1445 21.6517C19.5744 21.195 19.8165 20.5756 19.8171 19.9292V16.65C19.8171 16.3189 19.9409 16.0011 20.1617 15.7665C20.3826 15.5319 20.6825 15.3999 20.9954 15.3999H24.0829C24.6904 15.3993 25.2732 15.1426 25.7031 14.6858C26.133 14.2291 26.3749 13.6097 26.3754 12.9634C26.3747 12.3171 26.1327 11.6978 25.7028 11.2413C25.273 10.7848 24.6904 10.5282 24.0831 10.5275H15.232V19.9295C15.2327 20.5759 15.4748 21.1954 15.9049 21.6519ZM14.782 19.9297V10.0509H24.0834C24.8104 10.0517 25.5075 10.3587 26.0215 10.9047C26.5356 11.4507 26.8247 12.191 26.8254 12.9632C26.825 13.7355 26.5359 14.4761 26.0218 15.0223C25.5077 15.5685 24.8106 15.8757 24.0834 15.8765H20.9954C20.8023 15.8765 20.6169 15.958 20.4804 16.103C20.3438 16.2481 20.267 16.4449 20.267 16.65L20.2675 19.9298C20.2668 20.7019 19.9772 21.4421 19.4631 21.9881C18.9491 22.5341 18.252 22.8413 17.525 22.842C16.7978 22.8415 16.1006 22.5345 15.5863 21.9885C15.072 21.4425 14.7828 20.702 14.782 19.9297Z"
              fill="#10EAB5"/>
    </g>
    <g filter="url(#filter1_d_125_5213)">
        <path d="M24.0758 9.28711H14.0532V19.9361C14.0535 20.9134 14.419 21.8505 15.0695 22.5416C15.7201 23.2325 16.6022 23.6207 17.522 23.6207C18.4418 23.6207 19.3239 23.2325 19.9743 22.5415C20.6246 21.8505 20.99 20.9133 20.99 19.9361V16.6574H24.0758C24.9956 16.6571 25.8777 16.2687 26.5281 15.5775C27.1784 14.8864 27.5437 13.9491 27.5437 12.9717C27.5437 11.9945 27.1784 11.0573 26.528 10.3663C25.8776 9.6753 24.9955 9.28711 24.0758 9.28711ZM17.5257 22.8474C16.7991 22.847 16.1023 22.5401 15.5884 21.9942C15.0744 21.4484 14.7854 20.7081 14.7847 19.9361V10.0604H24.0794C24.8059 10.0612 25.5025 10.3681 26.0162 10.9139C26.53 11.4598 26.8189 12.1999 26.8196 12.9717C26.8191 13.7439 26.5303 14.4842 26.0165 15.0302C25.5028 15.5762 24.8061 15.8834 24.0794 15.8841H20.9936C20.8006 15.8841 20.6155 15.9656 20.479 16.1106C20.3425 16.2556 20.2659 16.4523 20.2659 16.6574V19.9361C20.2651 20.7079 19.9762 21.4481 19.4624 21.9939C18.9487 22.5397 18.2522 22.8467 17.5257 22.8474ZM22.7112 18.6708C22.6634 18.6714 22.616 18.6821 22.5721 18.7021C22.5281 18.7223 22.4882 18.7513 22.4549 18.7878C22.4215 18.8242 22.3952 18.8673 22.3775 18.9145C22.3599 18.9619 22.3512 19.0124 22.3519 19.0632C22.353 19.1495 22.3811 19.2328 22.4319 19.3C22.4827 19.3673 22.5531 19.4145 22.6321 19.4344C23.249 19.5878 23.7971 19.9631 24.1834 20.4966C24.5698 21.0302 24.7705 21.6893 24.7517 22.3622C24.7063 23.9446 23.4472 25.1837 21.9571 25.1837H20.99C20.797 25.1837 20.6118 25.2651 20.4754 25.4102C20.3389 25.5552 20.2622 25.7519 20.2622 25.9569V26.9815C20.2622 28.5658 19.095 29.9065 17.6048 29.9538H17.522C16.7954 29.9534 16.0986 29.6465 15.5847 29.1006C15.0708 28.5548 14.7817 27.8145 14.781 27.0425V24.3591C14.7813 24.2936 14.7694 24.2287 14.7458 24.1681C14.7222 24.1075 14.6875 24.0525 14.6436 24.0063C14.5078 23.8653 14.3817 23.7141 14.2661 23.5541C14.2555 23.539 14.2417 23.5267 14.226 23.5182C14.2102 23.5096 14.1928 23.5051 14.1751 23.5048C14.1593 23.5045 14.1436 23.5076 14.1289 23.5139C14.1142 23.5203 14.1009 23.5296 14.0897 23.5415C14.0785 23.5534 14.0696 23.5676 14.0637 23.5832C14.0577 23.5988 14.0548 23.6155 14.055 23.6323V26.969C14.055 29.0124 15.6107 30.7271 17.5257 30.7271H17.5912C18.4992 30.7081 19.3639 30.3116 19.9997 29.6227C20.6356 28.9337 20.9917 28.0074 20.9918 27.0425V25.956H21.9525C23.8547 25.956 25.4495 24.3563 25.4823 22.3351C25.4959 21.4905 25.2362 20.6664 24.7465 20.0008C24.2569 19.3352 23.567 18.8683 22.7922 18.6785C22.7662 18.6728 22.7396 18.6699 22.7131 18.6698L22.7112 18.6708Z"
              fill="white"/>
    </g>
    <defs>
        <filter id="filter0_d_125_5213" x="9.6001" y="4.80078" width="22.3999" height="30.4004"
                filterUnits="userSpaceOnUse" color-interpolation-filters="sRGB">
            <feFlood flood-opacity="0" result="BackgroundImageFix"/>
            <feColorMatrix in="SourceAlpha" type="matrix" values="0 0 0 0 0 0 0 0 0 0 0 0 0 0 0 0 0 0 127 0"
                           result="hardAlpha"/>
            <feOffset/>
            <feGaussianBlur stdDeviation="2"/>
            <feComposite in2="hardAlpha" operator="out"/>
            <feColorMatrix type="matrix" values="0 0 0 0 0.0627451 0 0 0 0 0.917647 0 0 0 0 0.709804 0 0 0 1 0"/>
            <feBlend mode="normal" in2="BackgroundImageFix" result="effect1_dropShadow_125_5213"/>
            <feBlend mode="normal" in="SourceGraphic" in2="effect1_dropShadow_125_5213" result="shape"/>
        </filter>
        <filter id="filter1_d_125_5213" x="10.0532" y="5.28711" width="21.4907" height="29.4395"
                filterUnits="userSpaceOnUse" color-interpolation-filters="sRGB">
            <feFlood flood-opacity="0" result="BackgroundImageFix"/>
            <feColorMatrix in="SourceAlpha" type="matrix" values="0 0 0 0 0 0 0 0 0 0 0 0 0 0 0 0 0 0 127 0"
                           result="hardAlpha"/>
            <feOffset/>
            <feGaussianBlur stdDeviation="2"/>
            <feComposite in2="hardAlpha" operator="out"/>
            <feColorMatrix type="matrix" values="0 0 0 0 0.0627451 0 0 0 0 0.917647 0 0 0 0 0.709804 0 0 0 1 0"/>
            <feBlend mode="normal" in2="BackgroundImageFix" result="effect1_dropShadow_125_5213"/>
            <feBlend mode="normal" in="SourceGraphic" in2="effect1_dropShadow_125_5213" result="shape"/>
        </filter>
    </defs>
</svg>
