<svg width="34" height="50" viewBox="0 0 34 50" fill="none" xmlns="http://www.w3.org/2000/svg">
<path d="M25.2598 0H0V24.8343C0.000607985 27.1135 0.921916 29.2991 2.56138 30.9106C4.20084 32.522 6.42419 33.4273 8.74243 33.4273C11.0605 33.4273 13.2836 32.5219 14.9227 30.9105C16.5618 29.299 17.4826 27.1133 17.4826 24.8343V17.1881H25.2598C27.5781 17.1875 29.8012 16.2817 31.4402 14.6698C33.0792 13.058 34 10.8722 34 8.59296C34 6.31398 33.0791 4.12829 31.44 2.5168C29.8009 0.905313 27.5778 0 25.2598 0ZM8.75161 31.6239C6.92021 31.6227 5.16415 30.9071 3.86894 29.6341C2.57373 28.3611 1.84525 26.6348 1.84342 24.8343V1.80334H25.269C27.1 1.80514 28.8555 2.52106 30.1502 3.79397C31.4449 5.06688 32.1731 6.7928 32.1749 8.59296C32.1737 10.3935 31.4458 12.12 30.151 13.3934C28.8562 14.6668 27.1004 15.383 25.269 15.3848H17.4918C17.0053 15.3848 16.5388 15.5748 16.1948 15.913C15.8508 16.2512 15.6576 16.7099 15.6576 17.1881V24.8343C15.6557 26.6345 14.9276 28.3604 13.6328 29.6333C12.3381 30.9062 10.5826 31.6221 8.75161 31.6239ZM21.8206 21.8836C21.7 21.8851 21.5808 21.9099 21.47 21.9567C21.3591 22.0036 21.2588 22.0714 21.1746 22.1564C21.0905 22.2414 21.0242 22.3419 20.9797 22.4522C20.9351 22.5624 20.9131 22.6802 20.915 22.7988C20.9177 22.9998 20.9886 23.1942 21.1166 23.351C21.2445 23.5079 21.4221 23.6182 21.6212 23.6644C23.176 24.022 24.5573 24.8972 25.531 26.1416C26.5046 27.386 27.0106 28.923 26.9633 30.4923C26.8487 34.1824 23.6755 37.0723 19.9199 37.0723H17.4826C16.9962 37.0723 16.5296 37.2623 16.1856 37.6005C15.8416 37.9387 15.6484 38.3973 15.6484 38.8756V41.265C15.6484 44.9597 12.7067 48.0862 8.95112 48.1967H8.74243C6.91103 48.1955 5.15497 47.4798 3.85976 46.2069C2.56455 44.9339 1.83607 43.2076 1.83424 41.407V35.1494C1.83508 34.9965 1.80486 34.845 1.74541 34.7038C1.68596 34.5625 1.59848 34.4343 1.48803 34.3267C1.14576 33.9977 0.827746 33.6452 0.53648 33.2717C0.509659 33.2367 0.475115 33.2081 0.435386 33.1882C0.395658 33.1683 0.35179 33.1575 0.3072 33.1568C0.267284 33.1562 0.227655 33.1634 0.190656 33.1782C0.153658 33.1929 0.120086 33.2148 0.0918577 33.2426C0.0636298 33.2703 0.0413554 33.3033 0.026365 33.3397C0.0113746 33.3761 0.00397113 33.415 0.00459009 33.4543V41.2357C0.00459009 46.0011 3.92526 50 8.75161 50H8.91669C11.205 49.9557 13.3845 49.031 14.9869 47.4243C16.5894 45.8177 17.4871 43.6572 17.4872 41.407V38.8733H19.9084C24.7026 38.8733 28.7219 35.1427 28.8045 30.4292C28.8389 28.4593 28.1844 26.5375 26.9502 24.9853C25.7161 23.433 23.9773 22.3444 22.0246 21.9016C21.959 21.8884 21.8922 21.8816 21.8252 21.8813L21.8206 21.8836Z" fill="#10EAB5"/>
</svg>
