<svg width="50" height="71" viewBox="0 0 50 71" fill="none" xmlns="http://www.w3.org/2000/svg">
    <g filter="url(#filter0_d_2_6)">
        <path fill-rule="evenodd" clip-rule="evenodd"
              d="M4 4H34.5655C37.5995 4 40.5082 5.2343 42.6521 7.43017C44.7962 9.6259 46 12.6032 46 15.7067C46 18.8108 44.7962 21.788 42.6526 23.9841C40.5085 26.1805 37.6 27.4155 34.566 27.4163H26.8714V35.3C26.8714 38.4038 25.6675 41.3811 23.5237 43.5769C21.3796 45.7727 18.4708 47.007 15.4371 47.007C12.4032 47.007 9.49413 45.7727 7.34955 43.5771C5.20516 41.3813 4.00079 38.4043 4 35.3005V4ZM5.3125 35.3C5.31321 38.0497 6.38017 40.6865 8.2788 42.6303C10.1774 44.5744 12.7523 45.6666 15.4371 45.6666C18.1215 45.6666 20.696 44.5744 22.5942 42.6303C24.4926 40.6862 25.5586 38.0494 25.5586 35.3002L25.5589 26.076H34.5655C37.2503 26.0752 39.825 24.9824 41.7231 23.0378C43.6212 21.0935 44.6875 18.4564 44.6875 15.7067C44.6875 12.9575 43.621 10.3207 41.7228 8.37666C39.8247 6.43259 37.2501 5.34043 34.5655 5.34043H5.3125V35.3ZM30.5881 31.7376C30.6655 31.7381 30.743 31.7462 30.8188 31.7623C33.0803 32.2964 35.0939 33.6095 36.5232 35.4822C37.9525 37.3548 38.7106 39.6732 38.6707 42.0496C38.5749 47.7359 33.9203 52.2365 28.3681 52.2365H25.5641V55.2933C25.5641 58.0078 24.5244 60.6142 22.6687 62.5522C20.8129 64.4905 18.2889 65.6061 15.6387 65.6597H15.4476C9.85821 65.6597 5.31783 60.8352 5.31783 55.0864V45.6992C5.31709 45.6517 5.32568 45.6047 5.34303 45.5608C5.36041 45.517 5.38618 45.4771 5.41889 45.4438C5.45157 45.4102 5.49045 45.3839 5.53329 45.3661C5.57616 45.3482 5.62204 45.3396 5.66827 45.3401C5.7199 45.3411 5.77069 45.354 5.81671 45.3781C5.86273 45.402 5.90273 45.4367 5.93379 45.4789C5.98615 45.5488 6.03926 45.6181 6.09312 45.6868C6.09633 45.691 6.09953 45.695 6.10273 45.6992C6.17245 45.7879 6.2434 45.8756 6.31557 45.9622C6.37731 46.0362 6.43994 46.1097 6.50344 46.1822C6.54536 46.2302 6.58765 46.2777 6.63033 46.325C6.76195 46.4704 6.89713 46.6127 7.03576 46.7515C7.16368 46.8815 7.265 47.0361 7.33383 47.2065C7.40268 47.3768 7.43767 47.5598 7.4367 47.7441V55.2933C7.43883 57.4652 8.28248 59.5479 9.78235 61.0835C11.2825 62.6194 13.3161 63.4825 15.4371 63.4841H15.6786C20.028 63.3507 23.4347 59.5789 23.4347 55.1219V52.2394C23.4347 51.6624 23.6584 51.109 24.0568 50.7011C24.4553 50.2929 24.9955 50.0638 25.5589 50.0638H28.3815C32.7309 50.0638 36.4056 46.5775 36.5384 42.1258C36.593 40.2326 36.0072 38.3783 34.8797 36.8771C33.752 35.3758 32.1523 34.3201 30.3516 33.8888C30.1211 33.8329 29.9156 33.7 29.7673 33.5108C29.6192 33.3215 29.537 33.0871 29.5339 32.8445C29.5318 32.7015 29.5573 32.5592 29.6087 32.4264C29.6604 32.2933 29.7371 32.172 29.8345 32.0696C29.9321 31.967 30.0481 31.8851 30.1765 31.8287C30.3049 31.7722 30.4443 31.7407 30.5842 31.7389L30.5881 31.7376ZM30.2088 30.4324L30.2799 30.3959L30.5936 30.3973C30.7574 30.3981 30.9215 30.4154 31.0829 30.4492L31.0989 30.4524L31.1147 30.4563C33.6698 31.0598 35.9444 32.5435 37.5585 34.6582C39.1724 36.7729 40.0279 39.3903 39.983 42.0727C39.8746 48.5176 34.6091 53.5771 28.3681 53.5771H26.8766V55.2933C26.8766 58.3575 25.703 61.3003 23.6072 63.4896C21.5111 65.6786 18.6596 66.9394 15.6647 66.9997L15.6518 67H15.4476C9.09985 67 4.00533 61.5408 4.00533 55.0864V45.7055C4.00378 45.4842 4.04476 45.2645 4.12611 45.0587C4.20937 44.8481 4.33309 44.6573 4.48948 44.4972C4.64591 44.3371 4.83268 44.21 5.03924 44.1242C5.24533 44.0386 5.46619 43.9963 5.68866 44H5.69155C5.94242 44.0045 6.18975 44.0675 6.41434 44.1848C6.6366 44.3008 6.82894 44.4662 6.9783 44.6673C7.27718 45.066 7.60347 45.4427 7.95459 45.7945L7.95779 45.7976L7.96097 45.8008C8.21278 46.0564 8.41194 46.3604 8.54716 46.6954C8.68179 47.0287 8.75057 47.386 8.7492 47.7472V55.2925C8.75115 57.1106 9.45737 58.8528 10.7116 60.1369C11.9661 61.4211 13.6658 62.1424 15.4379 62.1437H15.6582C19.2505 62.023 22.1222 58.8885 22.1222 55.1219V52.2394C22.1222 51.308 22.4834 50.4142 23.1276 49.7545C23.7718 49.0946 24.6462 48.7234 25.5589 48.7234H28.3815C32.0526 48.7234 35.1157 45.7813 35.2265 42.0859C35.2721 40.5009 34.7815 38.949 33.8381 37.6929C32.8947 36.4369 31.557 35.5543 30.0518 35.1937L30.0492 35.1931C29.5331 35.0682 29.0732 34.7705 28.7425 34.3479C28.4117 33.9258 28.2285 33.4029 28.2214 32.8627C28.2169 32.5448 28.2736 32.2285 28.3886 31.9324C28.5038 31.6357 28.675 31.3651 28.8926 31.1362C29.1102 30.907 29.3701 30.7241 29.6573 30.5976C29.8342 30.5199 30.0195 30.4645 30.2088 30.4324ZM10.7224 40.1439C11.9763 41.4278 13.6757 42.1491 15.4474 42.1504C17.2184 42.1486 18.9176 41.427 20.1711 40.1431C21.425 38.8587 22.1311 37.1167 22.133 35.2987V26.076C22.133 25.1446 22.4939 24.2508 23.1381 23.5912C23.7823 22.9312 24.6569 22.5601 25.5696 22.5601H34.575C36.3468 22.5582 38.0465 21.8363 39.3005 20.5517C40.5542 19.2673 41.2598 17.525 41.2613 15.7072C41.2592 13.8897 40.5534 12.148 39.2997 10.8639C38.046 9.57996 36.3468 8.85835 34.5755 8.85638H8.75983V35.2994C8.76178 37.1175 9.46787 38.8597 10.7224 40.1439ZM7.44733 35.3V7.51595H34.5763C36.6967 7.5181 38.7298 8.38178 40.2292 9.91727C41.7286 11.4529 42.5717 13.535 42.5738 15.7067C42.5725 17.8789 41.7294 19.9618 40.23 21.498C38.7306 23.0341 36.6973 23.8983 34.5763 23.9004H25.5696C25.0063 23.9004 24.4658 24.1296 24.0676 24.5375C23.6691 24.9457 23.4452 25.499 23.4452 26.076L23.4465 35.3002C23.4444 37.4719 22.6 39.5538 21.1006 41.0894C19.6012 42.625 17.5681 43.4889 15.4476 43.491C13.3266 43.4895 11.293 42.6261 9.79311 41.0905C8.29311 39.5548 7.44946 37.4722 7.44733 35.3Z"
              fill="#10EAB5"/>
    </g>
    <g filter="url(#filter1_d_2_6)">
        <path d="M34.7176 5H5V35.2979C5.00072 38.0785 6.08463 40.7448 8.0134 42.711C9.94225 44.6768 12.558 45.7812 15.2852 45.7812C18.0125 45.7812 20.6279 44.6768 22.5562 42.7107C24.4845 40.7448 25.5679 38.0782 25.5679 35.2979V25.9695H34.7176C37.4448 25.9687 40.0603 24.8638 41.9885 22.8971C43.9168 20.9307 45 18.2641 45 15.4833C45 12.703 43.9168 10.0364 41.9883 8.0705C40.06 6.10447 37.4445 5 34.7176 5ZM15.2962 43.5812C13.1416 43.5798 11.0756 42.7067 9.55184 41.1535C8.02792 39.6006 7.17089 37.4945 7.16875 35.2979V7.20006H34.7282C36.8823 7.20226 38.9477 8.07568 40.4709 9.62852C41.9942 11.1817 42.8508 13.2872 42.8529 15.4833C42.8516 17.6802 41.9952 19.7865 40.4717 21.34C38.9485 22.8934 36.8828 23.7673 34.7282 23.7695H25.5786C25.0065 23.7695 24.4575 24.0013 24.0527 24.4139C23.6479 24.8263 23.4208 25.3861 23.4208 25.9695V35.2979C23.4187 37.494 22.5618 39.5998 21.0386 41.1527C19.5154 42.7056 17.4502 43.579 15.2962 43.5812ZM30.6712 31.6979C30.5295 31.6998 30.3892 31.73 30.259 31.7871C30.1285 31.8445 30.0102 31.9271 29.9115 32.0309C29.8125 32.1345 29.7343 32.2571 29.682 32.3915C29.6297 32.5261 29.6038 32.6698 29.606 32.8145C29.6092 33.0599 29.6927 33.297 29.8432 33.4882C29.9937 33.6797 30.2026 33.8141 30.4367 33.8706C32.266 34.3069 33.8911 35.3747 35.0365 36.8928C36.1821 38.4109 36.7771 40.2862 36.7216 42.2006C36.5869 46.7027 32.8536 50.2281 28.4353 50.2281H25.5679C24.9955 50.2281 24.4466 50.4599 24.042 50.8726C23.6372 51.2852 23.4099 51.8447 23.4099 52.4281V55.3433C23.4099 59.8507 19.949 63.6653 15.5307 63.7999H15.2852C13.1306 63.7986 11.0646 62.9255 9.5409 61.3723C8.01714 59.8194 7.16008 57.7133 7.15794 55.5167V47.8822C7.15893 47.6958 7.12336 47.511 7.05345 47.3387C6.9835 47.1663 6.88058 47.0099 6.75065 46.8785C6.34796 46.4772 5.97383 46.047 5.63116 45.5916C5.59962 45.5489 5.55898 45.5138 5.51223 45.4896C5.4655 45.4652 5.41389 45.4522 5.36143 45.4514C5.31446 45.4506 5.26784 45.4594 5.22432 45.4774C5.18079 45.4955 5.14127 45.522 5.10808 45.556C5.07488 45.5898 5.04867 45.6301 5.03103 45.6745C5.01339 45.7188 5.00467 45.7663 5.00542 45.8141V55.3077C5.00542 61.1214 9.61802 66 15.2962 66H15.4902C18.1825 65.9461 20.7464 64.8178 22.6317 62.8578C24.517 60.8975 25.573 58.2619 25.5733 55.5167V52.4255H28.4217C34.0619 52.4255 38.7906 47.874 38.8877 42.1236C38.9283 39.7204 38.1581 37.3758 36.7062 35.482C35.2545 33.5883 33.2088 32.2601 30.9114 31.7199C30.8343 31.7037 30.7556 31.6955 30.6769 31.6952L30.6712 31.6979Z"
              fill="white"/>
    </g>
    <defs>
        <filter id="filter0_d_2_6" x="0" y="0" width="50" height="71" filterUnits="userSpaceOnUse"
                color-interpolation-filters="sRGB">
            <feFlood flood-opacity="0" result="BackgroundImageFix"/>
            <feColorMatrix in="SourceAlpha" type="matrix" values="0 0 0 0 0 0 0 0 0 0 0 0 0 0 0 0 0 0 127 0"
                           result="hardAlpha"/>
            <feOffset/>
            <feGaussianBlur stdDeviation="2"/>
            <feComposite in2="hardAlpha" operator="out"/>
            <feColorMatrix type="matrix" values="0 0 0 0 0.0627451 0 0 0 0 0.917647 0 0 0 0 0.709804 0 0 0 1 0"/>
            <feBlend mode="normal" in2="BackgroundImageFix" result="effect1_dropShadow_2_6"/>
            <feBlend mode="normal" in="SourceGraphic" in2="effect1_dropShadow_2_6" result="shape"/>
        </filter>
        <filter id="filter1_d_2_6" x="1" y="1" width="48" height="69" filterUnits="userSpaceOnUse"
                color-interpolation-filters="sRGB">
            <feFlood flood-opacity="0" result="BackgroundImageFix"/>
            <feColorMatrix in="SourceAlpha" type="matrix" values="0 0 0 0 0 0 0 0 0 0 0 0 0 0 0 0 0 0 127 0"
                           result="hardAlpha"/>
            <feOffset/>
            <feGaussianBlur stdDeviation="2"/>
            <feComposite in2="hardAlpha" operator="out"/>
            <feColorMatrix type="matrix" values="0 0 0 0 0.0627451 0 0 0 0 0.917647 0 0 0 0 0.709804 0 0 0 1 0"/>
            <feBlend mode="normal" in2="BackgroundImageFix" result="effect1_dropShadow_2_6"/>
            <feBlend mode="normal" in="SourceGraphic" in2="effect1_dropShadow_2_6" result="shape"/>
        </filter>
    </defs>
</svg>
