<svg width="189" height="60" viewBox="0 0 189 60" fill="none" xmlns="http://www.w3.org/2000/svg">
<g clip-path="url(#clip0_97_5129)">
<path d="M30.2022 0H0V29.8C0 32.5375 1.0962 35.1625 3.0618 37.0875C5.0274 39.025 7.6734 40.1125 10.4454 40.1125C13.2174 40.1125 15.876 39.025 17.829 37.0875C19.7946 35.15 20.8908 32.525 20.8908 29.8V20.625H30.1896C32.9616 20.625 35.6202 19.5375 37.5732 17.6C39.5388 15.6625 40.635 13.0375 40.635 10.3125C40.635 7.5875 39.5388 4.95 37.5732 3.025C35.6076 1.0875 32.9616 0 30.1896 0L30.2022 0ZM10.458 37.95C8.2656 37.95 6.174 37.0875 4.6242 35.5625C3.0744 34.0375 2.205 31.9625 2.205 29.8V2.1625H30.2022C32.3946 2.1625 34.4862 3.025 36.036 4.55C37.5858 6.075 38.4552 8.15 38.4552 10.3125C38.4552 12.475 37.5858 14.55 36.036 16.075C34.4862 17.6 32.3946 18.4625 30.2022 18.4625H20.9034C20.3238 18.4625 19.7694 18.6875 19.3536 19.1C18.9378 19.5 18.711 20.0625 18.711 20.625V29.8C18.711 31.9625 17.8416 34.0375 16.2918 35.5625C14.742 37.0875 12.6504 37.95 10.458 37.95ZM26.082 26.2625C25.9434 26.2625 25.7922 26.3 25.6662 26.35C25.5276 26.4 25.4142 26.4875 25.3134 26.5875C25.2126 26.6875 25.137 26.8125 25.0866 26.9375C25.0362 27.075 25.011 27.2125 25.011 27.35C25.011 27.5875 25.0992 27.825 25.2504 28.0125C25.4016 28.2 25.6158 28.3375 25.8552 28.3875C27.72 28.8125 29.3706 29.8625 30.5298 31.3625C31.689 32.85 32.2938 34.7 32.2434 36.5875C32.1048 41.0125 28.3122 44.4875 23.8266 44.4875H20.916C20.3364 44.4875 19.782 44.7125 19.3662 45.125C18.9504 45.525 18.7236 46.075 18.7236 46.65V49.5125C18.7236 53.95 15.2082 57.7 10.7226 57.825H10.4706C8.2782 57.825 6.1866 56.9625 4.6368 55.4375C3.087 53.9125 2.2176 51.8375 2.2176 49.675V42.1625C2.2176 41.975 2.1798 41.8 2.1168 41.625C2.0412 41.45 1.9404 41.3 1.8144 41.175C1.4112 40.775 1.0206 40.3625 0.6804 39.9125C0.6426 39.875 0.6048 39.8375 0.5544 39.8125C0.504 39.7875 0.4536 39.775 0.4032 39.775C0.3528 39.775 0.3024 39.775 0.2646 39.8C0.2142 39.8125 0.1764 39.85 0.1512 39.875C0.1134 39.9125 0.0882 39.95 0.0756 39.9875C0.063 40.025 0.0504 40.075 0.0504 40.125V49.4625C0 55.2 4.6872 60 10.458 60H10.6596C13.3938 59.95 16.002 58.8375 17.9172 56.9125C19.8324 54.9875 20.9034 52.3875 20.9034 49.6875V46.65H23.8014C29.5344 46.65 34.335 42.175 34.4358 36.5125C34.4736 34.15 33.6924 31.8375 32.2182 29.975C30.744 28.1125 28.665 26.8 26.334 26.275C26.2584 26.2625 26.1702 26.25 26.0946 26.25L26.082 26.2625Z" fill="#10EAB5"/>
<path d="M79.4934 9.3999C79.4934 10.3499 79.1154 11.2749 78.4602 11.9499C77.7924 12.6249 76.8978 12.9999 75.9528 12.9999H63.0504V19.7999H76.5198C76.5198 20.7124 76.167 21.5999 75.5244 22.2499C74.8818 22.8999 74.025 23.2624 73.1178 23.2624H63.0504V32.9874H58.9302V9.3999H79.4934Z" fill="currentColor"/>
<path d="M89.4221 33.3998C87.8345 33.4123 86.2847 32.9998 84.9113 32.1998C83.5631 31.3998 82.4417 30.2498 81.6731 28.8623C80.8541 27.3623 80.4383 25.6748 80.4761 23.9623C80.4761 22.0748 80.8793 20.4123 81.6983 18.9873C82.4795 17.5873 83.6261 16.4373 85.0121 15.6498C86.4485 14.8373 88.0739 14.4248 89.7245 14.4498C91.6649 14.4498 93.1895 14.8748 94.3109 15.7248C95.4449 16.5873 96.2891 17.7873 96.7301 19.1498C97.2341 20.6998 97.4861 22.3248 97.4609 23.9498C97.4609 25.0248 97.3097 26.0873 97.0325 27.1123C96.7427 28.1998 96.2891 29.2373 95.6717 30.1748C95.0417 31.1373 94.1975 31.9248 93.2021 32.4873C92.1815 33.0873 90.9215 33.3873 89.4473 33.3873L89.4221 33.3998ZM90.6821 30.0498C92.0177 30.0498 93.1643 29.7873 94.1219 29.2498C95.0291 28.7623 95.7851 27.9998 96.2891 27.0873C96.7931 26.1248 97.0451 25.0623 97.0199 23.9748C97.0199 22.6873 96.7679 21.5873 96.2639 20.6748C95.7725 19.7748 95.0165 19.0373 94.0967 18.5873C93.1517 18.0998 92.0177 17.8623 90.6695 17.8623C88.7291 17.8623 87.2423 18.4248 86.1965 19.5498C85.1507 20.6748 84.6215 22.1498 84.6215 23.9748C84.5963 25.0748 84.8609 26.1623 85.3901 27.1248C85.8941 28.0248 86.6375 28.7748 87.5195 29.2748C88.4897 29.8123 89.5733 30.0873 90.6695 30.0623L90.6821 30.0498ZM101.077 14.8623V32.9998H97.3097C97.2089 32.0748 97.1459 31.2748 97.0955 30.5998C97.0451 29.9248 97.0199 29.2748 97.0199 28.6623V18.9748C97.0199 18.4373 97.1207 17.8998 97.3223 17.3998C97.5239 16.8998 97.8263 16.4498 98.2043 16.0623C98.5823 15.6748 99.0233 15.3748 99.5147 15.1748C100.006 14.9623 100.535 14.8623 101.065 14.8623H101.077Z" fill="currentColor"/>
<path d="M105.462 14.8625C105.991 14.8625 106.52 14.975 107.012 15.175C107.503 15.3875 107.944 15.6875 108.322 16.0625C108.7 16.45 108.99 16.9 109.204 17.4C109.406 17.9 109.507 18.4375 109.507 18.975V33H105.462V14.8625ZM117.079 14.4625C118.062 14.4625 119.045 14.6 119.977 14.9C120.821 15.1625 121.603 15.625 122.258 16.225C122.9 16.8375 123.404 17.6 123.732 18.45C124.097 19.45 124.274 20.5 124.249 21.5625V33H120.204V22.3625C120.204 20.8875 119.851 19.7875 119.146 19.0625C118.44 18.35 117.331 17.9875 115.794 17.9875C114.71 17.975 113.627 18.225 112.657 18.7375C111.749 19.2 110.968 19.8625 110.351 20.675C109.771 21.4125 109.418 22.3 109.318 23.2375L109.28 21.275C109.393 20.375 109.67 19.5125 110.061 18.7125C110.464 17.9 111.019 17.15 111.674 16.525C112.367 15.875 113.173 15.35 114.055 15.0125C115.025 14.6375 116.046 14.45 117.079 14.4625Z" fill="currentColor"/>
<path d="M127.865 27.0249H131.632C131.821 27.9249 132.35 28.7124 133.106 29.2249C133.888 29.7999 134.959 30.0874 136.294 30.0874C136.987 30.1124 137.693 30.0249 138.348 29.8124C138.776 29.6874 139.142 29.3999 139.369 29.0124C139.558 28.6624 139.658 28.2624 139.658 27.8624C139.671 27.6374 139.646 27.4124 139.558 27.1999C139.482 26.9874 139.356 26.7874 139.205 26.6249C138.814 26.2874 138.373 26.0374 137.882 25.8999C137.176 25.6749 136.445 25.5124 135.715 25.3874C134.807 25.1624 133.925 24.9249 133.056 24.6749C132.237 24.4374 131.456 24.0999 130.725 23.6749C130.07 23.2999 129.503 22.7624 129.074 22.1249C128.659 21.4499 128.444 20.6499 128.47 19.8499C128.47 19.0624 128.659 18.2874 129.037 17.6124C129.44 16.9249 129.982 16.3499 130.637 15.9249C131.38 15.4374 132.187 15.0749 133.031 14.8499C134.014 14.5874 135.009 14.4624 136.017 14.4624C137.592 14.4624 138.902 14.7124 139.948 15.2249C140.944 15.6749 141.763 16.4249 142.33 17.3749C142.871 18.3374 143.161 19.4374 143.136 20.5374H139.595C139.406 19.5874 139.028 18.8999 138.487 18.4624C137.932 18.0249 137.101 17.7999 135.979 17.7999C134.858 17.7999 134.051 17.9999 133.472 18.3874C133.207 18.5499 132.993 18.7749 132.842 19.0499C132.691 19.3249 132.615 19.6374 132.615 19.9499C132.615 20.1874 132.653 20.4249 132.741 20.6499C132.842 20.8624 132.98 21.0624 133.169 21.2124C133.648 21.5749 134.19 21.8249 134.77 21.9749C135.463 22.1874 136.282 22.3999 137.239 22.6124C138.096 22.8249 138.915 23.0749 139.696 23.3374C140.414 23.5874 141.12 23.8999 141.775 24.2999C142.367 24.6624 142.884 25.1749 143.249 25.7749C143.64 26.4624 143.829 27.2374 143.804 28.0374C143.829 29.0749 143.514 30.0874 142.909 30.9124C142.241 31.7624 141.359 32.3999 140.351 32.7499C139.243 33.1749 137.907 33.3874 136.357 33.3874C135.135 33.4124 133.925 33.2499 132.754 32.9124C131.859 32.6499 131.015 32.2249 130.271 31.6749C129.667 31.2249 129.137 30.6749 128.734 30.0374C128.407 29.5249 128.155 28.9624 128.003 28.3624C127.877 27.9249 127.84 27.4624 127.877 27.0124L127.865 27.0249Z" fill="currentColor"/>
<path d="M166.333 27.0249C166.156 28.2374 165.652 29.3749 164.884 30.3249C164.052 31.3249 162.981 32.0999 161.784 32.5874C160.499 33.1374 158.936 33.4124 157.122 33.3999C155.043 33.3999 153.203 33.0124 151.616 32.2499C150.079 31.5374 148.768 30.4124 147.836 28.9874C146.916 27.5749 146.462 25.8999 146.462 23.9624C146.462 22.0249 146.916 20.3749 147.811 18.9374C148.718 17.4999 150.003 16.3499 151.515 15.6249C153.09 14.8499 154.917 14.4624 156.996 14.4624C159.125 14.4624 160.902 14.8499 162.351 15.6124C163.775 16.3499 164.896 17.5624 165.564 19.0374C166.257 20.5499 166.547 22.4624 166.421 24.7749H150.557C150.658 25.7624 151.011 26.6999 151.565 27.5124C152.132 28.3249 152.901 28.9749 153.783 29.3999C154.816 29.8874 155.938 30.1249 157.084 30.0874C158.47 30.0874 159.629 29.7999 160.574 29.2249C160.763 29.1124 160.952 28.9749 161.129 28.8374C162.616 27.6624 164.455 27.0249 166.345 27.0124L166.333 27.0249ZM156.883 17.7749C155.232 17.7749 153.884 18.1749 152.838 18.9749C151.817 19.7249 151.099 20.8249 150.797 22.0749H162.364C162.25 20.7124 161.696 19.6624 160.713 18.8999C159.73 18.1499 158.458 17.7749 156.883 17.7749Z" fill="currentColor"/>
<path d="M188.899 27.0249C188.723 28.2374 188.219 29.3749 187.45 30.3249C186.619 31.3249 185.548 32.0999 184.351 32.5874C183.065 33.1374 181.503 33.4124 179.689 33.3999C177.61 33.3999 175.77 33.0124 174.182 32.2499C172.645 31.5374 171.335 30.4124 170.402 28.9874C169.483 27.5749 169.029 25.8999 169.029 23.9624C169.029 22.0249 169.483 20.3749 170.377 18.9374C171.284 17.4999 172.57 16.3499 174.082 15.6249C175.657 14.8499 177.484 14.4624 179.563 14.4624C181.679 14.4624 183.469 14.8499 184.918 15.6124C186.341 16.3499 187.463 17.5624 188.118 19.0374C188.811 20.5499 189.101 22.4624 188.975 24.7749H173.099C173.2 25.7624 173.552 26.6999 174.107 27.5124C174.674 28.3249 175.442 28.9749 176.324 29.3999C177.358 29.8874 178.479 30.1249 179.626 30.0874C181.012 30.0874 182.171 29.7999 183.116 29.2249C183.305 29.1124 183.494 28.9749 183.67 28.8374C185.17 27.6624 187.009 27.0124 188.899 27.0124V27.0249ZM179.449 17.7749C177.799 17.7749 176.45 18.1749 175.405 18.9749C174.384 19.7249 173.666 20.8249 173.363 22.0749H184.93C184.817 20.7124 184.262 19.6624 183.28 18.8999C182.297 18.1499 181.024 17.7749 179.437 17.7749H179.449Z" fill="currentColor"/>
<path d="M64.1592 53.3625L58.7034 39.8625H61.3746L66.0114 51.7375L65.2302 51.7625L69.6654 39.875H72.4122L76.8474 51.7625L76.0662 51.7375L80.703 39.8625H83.3112L77.9184 53.3625H75.0456L70.6734 41.5125H71.4042L67.032 53.3625H64.1592Z" fill="currentColor"/>
<path d="M88.4394 53.5874C87.4692 53.5874 86.5872 53.3624 85.7934 52.8999C84.9996 52.4374 84.357 51.8124 83.8908 50.9999C83.4246 50.1874 83.1852 49.2499 83.1852 48.1999C83.1852 47.1499 83.4246 46.1749 83.9034 45.3624C84.3822 44.5499 85.0248 43.9124 85.8438 43.4624C86.6628 42.9999 87.5826 42.7749 88.6032 42.7749C89.7372 42.7749 90.6318 43.0124 91.287 43.4999C91.9422 43.9874 92.421 44.6374 92.6982 45.4624C92.988 46.2874 93.1266 47.1999 93.1266 48.2124C93.1266 48.7999 93.0384 49.3999 92.8746 50.0249C92.7108 50.6499 92.4462 51.2374 92.0808 51.7749C91.7154 52.3124 91.2366 52.7624 90.6318 53.0999C90.027 53.4374 89.2962 53.6124 88.4268 53.6124L88.4394 53.5874ZM89.1702 51.6749C89.9514 51.6749 90.6318 51.5249 91.1862 51.2124C91.7406 50.9124 92.169 50.4999 92.4588 49.9749C92.7486 49.4499 92.8872 48.8624 92.8872 48.1999C92.8872 47.4624 92.736 46.8374 92.4462 46.3124C92.1564 45.7874 91.728 45.3874 91.1736 45.1124C90.6192 44.8374 89.9514 44.6999 89.1702 44.6999C88.0362 44.6999 87.1668 45.0249 86.5494 45.6624C85.932 46.2999 85.6296 47.1499 85.6296 48.1874C85.6296 48.8624 85.7808 49.4624 86.0832 49.9874C86.3856 50.5124 86.8014 50.9124 87.3306 51.2124C87.8598 51.5124 88.4772 51.6624 89.1828 51.6624L89.1702 51.6749ZM92.8872 42.9874H95.256V53.3624H93.051C93.0006 52.8374 92.9502 52.3749 92.925 51.9874C92.8998 51.5999 92.8872 51.2249 92.8872 50.8874V42.9999V42.9874Z" fill="currentColor"/>
<path d="M98.0532 38.825H100.422V53.3624H98.0532V38.825Z" fill="currentColor"/>
<path d="M103.459 38.825H105.827V53.3624H103.459V38.825Z" fill="currentColor"/>
<path d="M117.457 49.95H119.75C119.637 50.6625 119.36 51.2875 118.906 51.8375C118.453 52.3875 117.848 52.8125 117.092 53.125C116.336 53.4375 115.429 53.5875 114.358 53.5875C113.135 53.5875 112.064 53.375 111.119 52.9375C110.187 52.5 109.444 51.875 108.902 51.075C108.36 50.275 108.095 49.3125 108.095 48.2C108.095 47.0875 108.36 46.15 108.877 45.325C109.406 44.5 110.124 43.875 111.044 43.425C111.964 42.975 113.035 42.7625 114.257 42.7625C115.479 42.7625 116.55 42.975 117.394 43.4125C118.238 43.85 118.868 44.5 119.272 45.375C119.675 46.2375 119.851 47.3375 119.776 48.65H110.477C110.552 49.2375 110.741 49.7499 111.069 50.2125C111.397 50.675 111.825 51.0375 112.367 51.3C112.909 51.5625 113.551 51.7 114.295 51.7C115.101 51.7 115.794 51.5375 116.336 51.2125C116.89 50.8875 117.256 50.4625 117.445 49.95H117.457ZM114.206 44.6625C113.236 44.6625 112.455 44.8875 111.838 45.35C111.22 45.8125 110.817 46.4 110.641 47.125H117.419C117.344 46.35 117.029 45.7375 116.449 45.3125C115.87 44.8875 115.126 44.6625 114.206 44.6625Z" fill="currentColor"/>
<path d="M120.96 42.9875H128.419V44.8999H120.96V42.9875ZM123.505 40.2H125.874V53.3625H123.505V40.2Z" fill="currentColor"/>
</g>
<defs>
<clipPath id="clip0_97_5129">
<rect width="189" height="60" fill="currentColor"/>
</clipPath>
</defs>
</svg>
