<svg width="24" height="24" viewBox="0 0 24 24" fill="none" xmlns="http://www.w3.org/2000/svg">
<path d="M20.6284 15.9989C20.5506 15.9052 20.4742 15.8114 20.3992 15.7209C19.3679 14.4736 18.744 13.7208 18.744 10.1897C18.744 8.36156 18.3067 6.86156 17.4447 5.73656C16.809 4.90547 15.9498 4.275 14.8173 3.80906C14.8027 3.80096 14.7897 3.79032 14.7789 3.77766C14.3715 2.41359 13.2568 1.5 11.9997 1.5C10.7425 1.5 9.62824 2.41359 9.2209 3.77625C9.21003 3.78845 9.1972 3.79875 9.18293 3.80672C6.54012 4.89469 5.25574 6.98203 5.25574 10.1883C5.25574 13.7208 4.63278 14.4736 3.60059 15.7195C3.52559 15.81 3.44918 15.9019 3.37137 15.9975C3.17037 16.2399 3.04302 16.5348 3.00439 16.8473C2.96576 17.1598 3.01747 17.4769 3.1534 17.7609C3.44262 18.3703 4.05903 18.7486 4.76262 18.7486H19.2418C19.9422 18.7486 20.5543 18.3708 20.8445 17.7642C20.981 17.4801 21.0332 17.1628 20.9949 16.8499C20.9566 16.537 20.8294 16.2417 20.6284 15.9989Z" fill="currentColor"/>
<path d="M11.9997 22.5C12.677 22.4995 13.3416 22.3156 13.9229 21.9679C14.5042 21.6202 14.9806 21.1217 15.3015 20.5252C15.3166 20.4966 15.3241 20.4646 15.3232 20.4322C15.3223 20.3999 15.313 20.3684 15.2963 20.3407C15.2796 20.313 15.2561 20.2901 15.2279 20.2742C15.1997 20.2583 15.1679 20.25 15.1356 20.25H8.86465C8.83227 20.2499 8.80042 20.2582 8.77218 20.274C8.74395 20.2899 8.72031 20.3128 8.70355 20.3405C8.6868 20.3682 8.6775 20.3997 8.67657 20.4321C8.67564 20.4645 8.68311 20.4965 8.69825 20.5252C9.01912 21.1216 9.49543 21.6201 10.0767 21.9678C10.6579 22.3155 11.3224 22.4994 11.9997 22.5Z" fill="currentColor"/>
</svg>
