<svg width="24" height="18" viewBox="0 0 24 18" fill="none" xmlns="http://www.w3.org/2000/svg">
<path d="M15.75 9C14.7844 9 13.8563 8.56875 13.125 7.79062C12.4172 7.03125 11.9813 6.01406 11.9063 4.93125C11.8266 3.77812 12.1781 2.71406 12.8953 1.94063C13.6125 1.17188 14.625 0.75 15.75 0.75C16.8657 0.75 17.8782 1.17656 18.5953 1.94531C19.3219 2.72344 19.6735 3.78281 19.5891 4.92656C19.5094 6.00938 19.0782 7.02656 18.3703 7.78594C17.6438 8.56875 16.7157 9 15.75 9ZM15.75 2.25C15.0469 2.25 14.4235 2.50312 13.9969 2.9625C13.5563 3.43594 13.3547 4.07812 13.4063 4.82344C13.4578 5.56406 13.7485 6.25781 14.2266 6.76875C14.6672 7.24219 15.211 7.5 15.75 7.5C16.2938 7.5 16.8328 7.2375 17.2735 6.76875C17.7516 6.25781 18.0422 5.56875 18.0938 4.82344C18.1453 4.10156 17.9344 3.44063 17.4938 2.97188C17.0672 2.50313 16.4438 2.25 15.75 2.25Z" fill="currentColor"/>
<path d="M21.9282 17.2501H9.57191C9.1641 17.2501 8.7891 17.0673 8.54066 16.7485C8.28285 16.4157 8.1891 15.9657 8.29222 15.5392C8.68598 13.9548 9.66566 12.6423 11.1188 11.7376C12.4079 10.936 14.0532 10.4954 15.7453 10.4954C17.4704 10.4954 19.0735 10.9173 20.3719 11.7188C21.8297 12.6142 22.8094 13.936 23.2032 15.5392C23.3063 15.9657 23.2125 16.4157 22.9547 16.7485C22.711 17.0673 22.336 17.2501 21.9282 17.2501ZM9.79222 15.7501H21.7125C20.9391 12.9845 18.0375 12.0001 15.75 12.0001C13.4719 12.0001 10.575 12.9845 9.79222 15.7501Z" fill="currentColor"/>
<path d="M6.89065 9.1874C5.24065 9.1874 3.79221 7.65459 3.65627 5.77022C3.58596 4.80459 3.88596 3.91397 4.49534 3.25772C5.10002 2.61084 5.94846 2.25459 6.88596 2.25459C7.81877 2.25459 8.66721 2.61553 9.2719 3.26709C9.88596 3.92803 10.186 4.81866 10.1156 5.77491C9.98909 7.65459 8.53596 9.1874 6.89065 9.1874ZM6.89065 3.74991C6.37502 3.74991 5.91565 3.93741 5.5969 4.27959C5.26877 4.63116 5.11409 5.10928 5.15627 5.66241C5.23596 6.75928 6.02815 7.68741 6.89065 7.68741C7.75315 7.68741 8.55002 6.75928 8.62502 5.66241C8.66252 5.12334 8.50315 4.63584 8.17971 4.28428C7.86096 3.93741 7.40159 3.74991 6.89065 3.74991Z" fill="currentColor"/>
<path d="M7.21879 15.7499H1.95472C1.58441 15.7499 1.24222 15.5812 1.01254 15.2952C0.778161 14.9952 0.693786 14.5827 0.787536 14.1983C1.11097 12.8905 1.91722 11.8124 3.11254 11.0718C4.16722 10.4202 5.50785 10.0593 6.88597 10.0593C8.06722 10.0593 9.07504 10.2562 9.96566 10.664C10.3407 10.8374 10.5094 11.2827 10.336 11.6577C10.1625 12.0327 9.71722 12.2015 9.34222 12.028C8.65316 11.714 7.8516 11.5593 6.89066 11.5593C5.17972 11.5593 3.01879 12.2718 2.33441 14.2546H7.21879C7.63129 14.2546 7.96879 14.5921 7.96879 15.0046C7.96879 15.4171 7.63129 15.7499 7.21879 15.7499Z" fill="currentColor"/>
</svg>
