<svg width="22" height="22" viewBox="0 0 22 22" fill="none" xmlns="http://www.w3.org/2000/svg">
<path d="M13.0062 21.7812H8.99836C8.99367 21.7812 8.98898 21.7812 8.9843 21.7812C8.3843 21.7719 7.88273 21.3547 7.76086 20.7687C7.75617 20.7547 7.75617 20.7359 7.75148 20.7219L7.43742 18.4813H7.43273C7.04836 18.2938 6.67336 18.0781 6.3218 17.8297L4.21711 18.6781C4.21242 18.6781 4.20773 18.6828 4.20305 18.6828C3.63117 18.8984 2.98898 18.6781 2.67492 18.1484C2.67492 18.1437 2.67023 18.1437 2.67023 18.1391L0.663983 14.6703C0.354608 14.1406 0.476483 13.4656 0.949921 13.0719C0.954608 13.0672 0.959296 13.0625 0.963983 13.0578L2.75461 11.6516L2.74992 11.6469C2.73117 11.4125 2.7218 11.2016 2.7218 10.9953C2.7218 10.7844 2.73117 10.5734 2.74992 10.3484L0.968671 8.95156C0.959296 8.94688 0.954608 8.94219 0.949921 8.93281C0.485858 8.53906 0.368671 7.86875 0.673358 7.34375L2.67961 3.875C2.67961 3.87031 2.6843 3.87031 2.6843 3.86563C2.99836 3.34063 3.64055 3.11563 4.21242 3.33125C4.21711 3.33125 4.2218 3.33594 4.22648 3.33594L6.33117 4.18437C6.68742 3.94062 7.05773 3.725 7.44211 3.5375L7.75617 1.29219C7.75617 1.28281 7.76086 1.27344 7.76086 1.26875C7.8593 0.673438 8.37492 0.232813 8.97961 0.21875C8.9843 0.21875 8.98898 0.21875 8.99367 0.21875H13.0015C13.0062 0.21875 13.0109 0.21875 13.0155 0.21875C13.6155 0.228125 14.1171 0.645312 14.239 1.23125C14.2437 1.24531 14.2437 1.26406 14.2484 1.27812L14.5624 3.51875H14.5671C14.9515 3.70625 15.3265 3.92188 15.678 4.17031L17.7827 3.32187C17.7874 3.32187 17.7921 3.31719 17.7968 3.31719C18.3687 3.09687 19.0109 3.32188 19.3249 3.85156C19.3249 3.85625 19.3296 3.85625 19.3296 3.86094L21.3359 7.32969C21.6452 7.85938 21.5234 8.53438 21.0499 8.92813C21.0452 8.93281 21.0405 8.9375 21.0359 8.94219L19.2452 10.3484C19.2452 10.3531 19.2452 10.3578 19.2452 10.3578C19.264 10.5969 19.2734 10.8078 19.2734 11V11.0047C19.2734 11.2156 19.264 11.4313 19.2452 11.6422L21.0359 13.0438C21.0405 13.0484 21.0452 13.0531 21.0499 13.0578C21.5234 13.4516 21.6452 14.1219 21.3359 14.6562L19.3296 18.125C19.3296 18.1297 19.3249 18.1297 19.3249 18.1344C19.0109 18.6594 18.3687 18.8844 17.7968 18.6688C17.7921 18.6688 17.7874 18.6641 17.7827 18.6641L15.678 17.8156C15.3218 18.0594 14.9515 18.275 14.5671 18.4625L14.253 20.7078C14.253 20.7172 14.2484 20.7266 14.2484 20.7313C14.1452 21.3266 13.6296 21.7672 13.0249 21.7812C13.0155 21.7812 13.0109 21.7812 13.0062 21.7812ZM9.20461 20.2812H12.7952L13.0812 18.2516C13.1515 17.7594 13.4609 17.3328 13.9109 17.1125C14.2296 16.9578 14.5343 16.7797 14.8249 16.5828C15.2374 16.2969 15.7671 16.2359 16.2405 16.4234L18.1437 17.1875L19.9343 14.0891L17.9843 12.5656C17.7734 12.4016 17.6655 12.1344 17.703 11.8719C17.7452 11.5859 17.764 11.2906 17.7687 11C17.7687 10.8453 17.7593 10.6766 17.7452 10.4797C17.6984 9.97344 17.914 9.48125 18.3124 9.16719L19.9296 7.89688L18.139 4.79844L16.2359 5.5625C15.7671 5.75 15.2374 5.69375 14.8202 5.40313C14.5343 5.20156 14.2296 5.02344 13.9155 4.87344C13.4655 4.65781 13.1515 4.23125 13.0765 3.73438L12.7952 1.71875H9.20461L8.91867 3.74844C8.84836 4.24063 8.53898 4.66719 8.08898 4.8875C7.77023 5.04219 7.46555 5.22031 7.17492 5.41719C6.76242 5.70312 6.23273 5.76406 5.7593 5.57656L3.86555 4.8125L2.07492 7.91094L3.68273 9.17656C4.08117 9.49063 4.29211 9.97812 4.24992 10.4844C4.23117 10.6672 4.22648 10.8359 4.22648 11C4.22648 11.1594 4.23586 11.3281 4.24992 11.5203C4.2968 12.0266 4.08586 12.5188 3.68742 12.8328L2.07023 14.1031L3.86086 17.2016L5.7593 16.4375C6.22805 16.25 6.75773 16.3062 7.17492 16.5969C7.46086 16.7984 7.76555 16.9766 8.07961 17.1266C8.52961 17.3422 8.84367 17.7687 8.91867 18.2656L9.20461 20.2812ZM11.0046 14.75C10.8827 14.75 10.7562 14.7453 10.6343 14.7313C9.63586 14.6328 8.74055 14.15 8.10305 13.3766C7.46555 12.6031 7.17023 11.6281 7.26867 10.6297C7.47023 8.57188 9.31242 7.0625 11.3702 7.26406C13.1421 7.44219 14.553 8.85781 14.7312 10.625C14.7546 10.8687 14.7546 11.1172 14.7312 11.3656C14.539 13.3016 12.9077 14.75 11.0046 14.75ZM10.9952 8.75C10.4749 8.75 9.97805 8.92812 9.57023 9.26094C9.10617 9.64062 8.81555 10.1797 8.7593 10.7797C8.69836 11.3797 8.87648 11.9609 9.26086 12.4297C9.64055 12.8938 10.1796 13.1844 10.7796 13.2406C12.0124 13.3625 13.1187 12.4578 13.2405 11.2203C13.2546 11.075 13.2546 10.925 13.2405 10.7797C13.1327 9.71562 12.2843 8.86719 11.2202 8.75937C11.1452 8.75469 11.0702 8.75 10.9952 8.75Z" fill="currentColor"/>
</svg>
