<svg width="20" height="16" viewBox="0 0 20 16" fill="none" xmlns="http://www.w3.org/2000/svg">
<path fill-rule="evenodd" clip-rule="evenodd" d="M16.2197 0.71967C16.5126 0.426777 16.9874 0.426777 17.2803 0.71967L19.5303 2.96967C19.8232 3.26256 19.8232 3.73744 19.5303 4.03033L17.2803 6.28033C16.9874 6.57322 16.5126 6.57322 16.2197 6.28033C15.9268 5.98744 15.9268 5.51256 16.2197 5.21967L17.1893 4.25H15.0067C14.5129 4.25001 14.0267 4.37193 13.5913 4.60495C13.1558 4.83796 12.7847 5.17486 12.5107 5.58575L12.1241 6.16591C11.8944 6.5106 11.4288 6.60382 11.0841 6.37412C10.7394 6.14442 10.6462 5.67878 10.8759 5.33409L11.2627 4.75362C11.6736 4.13729 12.2304 3.63194 12.8835 3.28242C13.5366 2.9329 14.2659 2.75001 15.0067 2.75H17.1893L16.2197 1.78033C15.9268 1.48744 15.9268 1.01256 16.2197 0.71967ZM0.25 3.5C0.25 3.08579 0.585786 2.75 1 2.75H4.99328C5.73405 2.75001 6.46337 2.9329 7.11649 3.28242C7.76962 3.63194 8.32635 4.13729 8.73729 4.75362L10.6144 7.56953C10.621 7.57888 10.6273 7.58836 10.6334 7.59796L12.5107 10.4142C12.7847 10.8251 13.1558 11.162 13.5913 11.3951C14.0267 11.6281 14.5129 11.75 15.0067 11.75H17.1893L16.2197 10.7803C15.9268 10.4874 15.9268 10.0126 16.2197 9.71967C16.5126 9.42678 16.9874 9.42678 17.2803 9.71967L19.5303 11.9697C19.8232 12.2626 19.8232 12.7374 19.5303 13.0303L17.2803 15.2803C16.9874 15.5732 16.5126 15.5732 16.2197 15.2803C15.9268 14.9874 15.9268 14.5126 16.2197 14.2197L17.1893 13.25H15.0067C14.2659 13.25 13.5366 13.0671 12.8835 12.7176C12.2304 12.3681 11.6736 11.8627 11.2627 11.2464L11.2627 11.2463L10 9.35216L8.73734 11.2463L8.73729 11.2464C8.32635 11.8627 7.76962 12.3681 7.11649 12.7176C6.46337 13.0671 5.73406 13.25 4.99328 13.25H1C0.585786 13.25 0.25 12.9142 0.25 12.5C0.25 12.0858 0.585786 11.75 1 11.75H4.99327C5.48711 11.75 5.97332 11.6281 6.40873 11.3951C6.84415 11.162 7.21531 10.8251 7.48927 10.4142L9.09864 8L7.48927 5.58575C7.48925 5.58573 7.48924 5.58571 7.48923 5.58569C7.21527 5.17483 6.84413 4.83795 6.40873 4.60495C5.97332 4.37193 5.48712 4.25001 4.99328 4.25C4.99328 4.25 4.99329 4.25 4.99328 4.25H1C0.585786 4.25 0.25 3.91421 0.25 3.5Z" fill="currentColor"/>
</svg>
