<svg width="24" height="30" viewBox="0 0 24 30" fill="none" xmlns="http://www.w3.org/2000/svg">
<path d="M23.6405 7.8986C22.512 7.048 21.3052 6.14117 20.1245 5.24137C20.0984 5.22028 20.0723 5.19919 20.0397 5.1781C19.9092 5.07265 19.7592 4.96018 19.5765 4.89691L19.5635 4.88988C16.4062 4.0674 13.1967 3.22384 10.0916 2.40839C7.27351 1.67027 4.46196 0.932154 1.64388 0.194035C1.57212 0.172946 1.50037 0.151857 1.42209 0.130768C1.16768 0.0534407 0.874126 -0.0309155 0.561006 0.0112627C0.46968 0.0253221 0.391399 0.0604708 0.319643 0.109679L0.241363 0.179976C0.11742 0.306511 0.0521868 0.468194 0.0195702 0.55958L0 0.615818V0.939184L0.0130465 0.988392C1.79391 6.36612 3.62045 11.8212 5.38174 17.1005C6.7386 21.1637 8.14764 25.3745 9.52406 29.5079C9.60886 29.7891 9.85022 29.9719 10.1503 30H10.2155C10.496 30 10.7439 29.8524 10.8679 29.6134L16.0343 21.4941C17.2933 19.5187 18.5523 17.5363 19.8113 15.561C20.3267 14.7526 20.842 13.9371 21.3574 13.1287C22.2054 11.7931 23.0795 10.4152 23.9471 9.07256L23.9928 9.00226V8.9179C24.0124 8.67186 24.0189 8.16572 23.6405 7.8986ZM17.5869 10.8581C16.3736 11.54 15.1341 12.243 13.8882 12.9389C14.6123 12.1024 15.3429 11.2588 16.067 10.4223C16.9737 9.36781 17.9196 8.2782 18.8459 7.20968L18.8655 7.1886C18.9437 7.07612 19.0416 6.97067 19.146 6.8582C19.2177 6.78087 19.296 6.70355 19.3678 6.61216C19.8505 6.97067 20.3397 7.33622 20.8094 7.69474C21.1486 7.95483 21.4944 8.21493 21.8466 8.47503C20.4115 9.26236 18.9764 10.0708 17.5869 10.8581ZM14.4687 10.5207C13.5359 11.6103 12.5705 12.728 11.6115 13.8317C9.75237 11.3994 7.85409 8.93196 6.01451 6.54889C5.17952 5.46632 4.33801 4.37671 3.50303 3.29414L3.4965 3.28711C3.30733 3.05513 3.12467 2.80206 2.94202 2.56305C2.8246 2.40136 2.70066 2.24671 2.57671 2.08503C3.33342 2.29592 4.09665 2.49275 4.84683 2.68255C5.50569 2.85127 6.19064 3.02701 6.86254 3.20978C10.6461 4.20097 14.4361 5.19216 18.2197 6.18335C16.9606 7.63147 15.6951 9.10068 14.4687 10.5207ZM11.1875 24.2216C11.2593 23.4835 11.3375 22.7243 11.4028 21.9791C11.4615 21.3816 11.5202 20.77 11.5789 20.1865C11.6702 19.2516 11.7681 18.2815 11.8464 17.3325L11.8659 17.1638C11.9312 16.5592 11.9964 15.9336 12.0355 15.3079C12.1073 15.2657 12.1856 15.2236 12.2704 15.1884C12.3682 15.1392 12.4661 15.097 12.5639 15.0338C14.0708 14.1832 15.5777 13.3326 17.0911 12.489C18.598 11.6454 20.144 10.7737 21.677 9.90909C20.281 12.0883 18.8785 14.2886 17.5217 16.4327C16.354 18.2674 15.1537 20.1584 13.9599 22.0213C13.4902 22.7664 13.001 23.5256 12.5378 24.2567C12.016 25.0722 11.4811 25.9087 10.9592 26.7452C11.0244 25.9017 11.1027 25.0511 11.1875 24.2216ZM2.09399 3.74404C2.00919 3.49097 1.91786 3.23087 1.83958 2.98483C3.60088 5.27652 5.37522 7.58226 7.1039 9.81771C7.9976 10.9776 8.89129 12.1305 9.78499 13.2974C9.96112 13.5153 10.1372 13.7473 10.3069 13.9723C10.5286 14.2605 10.7504 14.5628 10.9918 14.851C10.9135 15.575 10.8483 16.3061 10.7765 17.0091C10.7309 17.5012 10.6852 17.9933 10.633 18.4924V18.4994C10.6135 18.8157 10.5743 19.1321 10.5417 19.4414C10.496 19.8702 10.3917 20.8403 10.3917 20.8403L10.3851 20.8895C10.2677 22.3095 10.1242 23.7436 9.98721 25.1354C9.9285 25.7119 9.87632 26.3024 9.81761 26.8929C9.78499 26.7874 9.74585 26.682 9.71323 26.5836C9.61538 26.3024 9.51753 26.0071 9.42621 25.7189L8.72821 23.6311C6.5168 17.0021 4.3054 10.3801 2.09399 3.74404Z" fill="white"/>
</svg>
