<svg width="88" height="80" viewBox="0 0 88 80" fill="none" xmlns="http://www.w3.org/2000/svg">
<path d="M52.9329 42.9928V42.9813C52.4315 43.0158 49.8426 43.1655 44.0816 43.1655C39.4752 43.1655 36.2449 43.0388 35.102 42.9813V42.9928C17.3878 42.2216 4.17493 39.1827 4.17493 35.5338C4.17493 31.8964 17.3994 28.846 35.102 28.0748V39.9655C36.2566 40.046 39.5802 40.2417 44.1633 40.2417C49.6676 40.2417 52.4198 40.0115 52.9329 39.9655V28.0863C70.6122 28.8691 83.7901 31.9079 83.7901 35.5453C83.7901 39.1827 70.6006 42.2216 52.9329 43.0043M52.9329 26.8547V16.2187H77.5977V0H10.449V16.2187H35.1137V26.8547C15.0671 27.764 0 31.6777 0 36.3741C0 41.0705 15.0787 44.9842 35.1137 45.905V80H52.9446V45.905C72.9563 44.9957 88 41.082 88 36.3856C88 31.7007 72.9563 27.7755 52.9446 26.8662" fill="white"/>
</svg>
