<svg width="22" height="19" viewBox="0 0 22 19" fill="none" xmlns="http://www.w3.org/2000/svg">
<path fill-rule="evenodd" clip-rule="evenodd" d="M15.3672 0.30399C15.812 0.220365 16.2698 0.235365 16.7083 0.347973C17.1493 0.46122 17.5598 0.670395 17.9106 0.960572C18.2614 1.25075 18.5439 1.61478 18.7378 2.02668C18.9317 2.43859 19.0324 2.88822 19.0325 3.34349V3.34373V4.04712C20.4353 4.29841 21.5 5.52487 21.5 7V16C21.5 17.6569 20.1569 19 18.5 19H3.5C1.84315 19 0.5 17.6569 0.5 16V7L0.500001 6.99819V5.45333V5.4531C0.49963 4.7329 0.750542 4.03512 1.20949 3.48007C1.66854 2.92489 2.30695 2.54731 3.0146 2.41246C3.01933 2.41155 3.02407 2.4107 3.02882 2.40989L15.3672 0.30399ZM17.5325 3.34397V4H3.5C3.24591 4 2.9992 4.03159 2.76358 4.09105C2.92406 3.99313 3.10177 3.92365 3.289 3.88717L15.6262 1.78147C15.6287 1.78105 15.6312 1.78061 15.6337 1.78016C15.6359 1.77975 15.6382 1.77933 15.6404 1.77891C15.8708 1.735 16.108 1.74249 16.3352 1.80083C16.5624 1.85917 16.7738 1.96692 16.9546 2.11641C17.1353 2.26589 17.2808 2.45342 17.3807 2.66562C17.4806 2.87773 17.5324 3.10928 17.5325 3.34373V3.34397ZM2 16L2 7.74998V6.99852C2.0008 6.17077 2.67207 5.5 3.5 5.5H18.5C19.3284 5.5 20 6.17157 20 7V16C20 16.8284 19.3284 17.5 18.5 17.5H3.5C2.67157 17.5 2 16.8284 2 16ZM15.4166 12.7472C15.6633 12.912 15.9533 13 16.25 13C16.6478 13 17.0294 12.842 17.3107 12.5607C17.592 12.2794 17.75 11.8978 17.75 11.5C17.75 11.2033 17.662 10.9133 17.4972 10.6666C17.3324 10.42 17.0981 10.2277 16.824 10.1142C16.5499 10.0006 16.2483 9.97095 15.9574 10.0288C15.6664 10.0867 15.3991 10.2296 15.1893 10.4393C14.9796 10.6491 14.8367 10.9164 14.7788 11.2074C14.7209 11.4983 14.7506 11.7999 14.8642 12.074C14.9777 12.3481 15.17 12.5824 15.4166 12.7472Z" fill="currentColor"/>
</svg>
