<svg width="240" height="325" viewBox="0 0 240 325" fill="none" xmlns="http://www.w3.org/2000/svg">
    <g filter="url(#filter0_d_86_643)">
        <path d="M149.152 21H59.9996V110.8C60.0018 119.042 63.2535 126.945 69.0398 132.772C74.8261 138.598 82.6732 141.872 90.8553 141.872C99.0366 141.872 106.883 138.598 112.668 132.771C118.453 126.944 121.703 119.041 121.703 110.8V83.1517H149.152C157.334 83.1496 165.18 79.8741 170.965 74.0457C176.75 68.2173 180 60.3134 180 52.0719C180 43.8311 176.749 35.9278 170.964 30.1007C165.179 24.2736 157.333 21 149.152 21ZM90.8877 135.351C84.4239 135.347 78.2261 132.759 73.6547 128.156C69.0834 123.553 66.5123 117.311 66.5058 110.8V27.5208H149.184C155.647 27.5273 161.843 30.1161 166.412 34.7189C170.982 39.3217 173.552 45.5625 173.558 52.0719C173.554 58.5826 170.985 64.8255 166.415 69.4301C161.845 74.0346 155.648 76.6244 149.184 76.6309H121.735C120.018 76.6309 118.372 77.318 117.158 78.5409C115.944 79.7638 115.262 81.4223 115.262 83.1517V110.8C115.255 117.309 112.685 123.55 108.116 128.153C103.546 132.756 97.3501 135.345 90.8877 135.351ZM137.014 100.13C136.588 100.136 136.167 100.226 135.776 100.395C135.385 100.564 135.031 100.809 134.734 101.117C134.437 101.424 134.203 101.788 134.045 102.186C133.888 102.585 133.811 103.011 133.817 103.44C133.827 104.167 134.077 104.869 134.529 105.437C134.98 106.004 135.607 106.403 136.31 106.57C141.797 107.863 146.673 111.027 150.109 115.527C153.545 120.027 155.331 125.585 155.164 131.259C154.76 144.602 143.56 155.052 130.305 155.052H121.703C119.986 155.052 118.339 155.739 117.125 156.962C115.911 158.185 115.229 159.843 115.229 161.573V170.213C115.229 183.573 104.847 194.878 91.5918 195.278H90.8553C84.3915 195.273 78.1937 192.686 73.6223 188.082C69.051 183.479 66.4799 177.237 66.4734 170.727V148.099C66.4764 147.546 66.3697 146.999 66.1599 146.488C65.9501 145.977 65.6413 145.513 65.2515 145.124C64.0435 143.935 62.9211 142.66 61.8931 141.31C61.7984 141.183 61.6765 141.079 61.5363 141.007C61.3961 140.935 61.2412 140.897 61.0839 140.894C60.943 140.892 60.8031 140.918 60.6725 140.971C60.542 141.024 60.4235 141.104 60.3238 141.204C60.2242 141.304 60.1456 141.424 60.0927 141.555C60.0398 141.687 60.0136 141.828 60.0158 141.97V170.107C60.0158 187.338 73.8535 201.798 90.8877 201.798H91.4703C99.5467 201.638 107.239 198.294 112.895 192.485C118.55 186.675 121.719 178.863 121.719 170.727V161.565H130.265C147.185 161.565 161.371 148.075 161.662 131.031C161.784 123.908 159.474 116.959 155.118 111.346C150.762 105.733 144.625 101.797 137.734 100.195C137.502 100.148 137.266 100.123 137.03 100.122L137.014 100.13Z"
              fill="white"/>
    </g>
    <g filter="url(#filter1_d_86_643)">
        <path fill-rule="evenodd" clip-rule="evenodd"
              d="M58.5004 21H149.232C157.791 21 165.999 24.4218 172.05 30.5116C178.101 36.6012 181.5 44.8598 181.5 53.4703C181.5 62.0814 178.102 70.3405 172.051 76.4314C166 82.5225 157.792 85.9463 149.232 85.9485H123.045V112.306C123.045 120.916 119.647 129.175 113.596 135.264C107.544 141.354 99.3361 144.776 90.7768 144.776C82.2168 144.776 74.008 141.354 67.9555 135.265C61.9031 129.175 58.5026 120.917 58.5004 112.306L58.5004 21ZM61.1743 23.6834V112.305C61.1743 112.305 61.1743 112.305 61.1743 112.305C61.1764 120.207 64.297 127.784 69.8486 133.37C75.4003 138.955 82.9283 142.092 90.7768 142.092C98.6246 142.092 106.152 138.955 111.702 133.369C117.253 127.784 120.371 120.207 120.371 112.306V83.2651H149.231C149.231 83.2651 149.232 83.2651 149.231 83.2651C157.08 83.263 164.607 80.1238 170.157 74.5369C175.708 68.9498 178.826 61.3722 178.826 53.4703C178.826 45.5691 175.707 37.9922 170.157 32.4064C164.607 26.8207 157.08 23.6834 149.232 23.6834H61.1743ZM65.0242 27.5327H149.264C156.1 27.5396 162.654 30.2753 167.486 35.1382C172.318 40.001 175.034 46.5936 175.041 53.4689V53.4712C175.037 60.348 172.321 66.9427 167.489 71.8074C162.656 76.6721 156.102 79.4089 149.266 79.4158H121.741C120.375 79.4158 119.064 79.9618 118.097 80.935C117.13 81.9082 116.586 83.2288 116.586 84.6068V112.306C116.58 119.181 113.863 125.775 109.031 130.638C104.199 135.501 97.6459 138.236 90.8106 138.243H90.8084C83.9717 138.239 77.4169 135.504 72.583 130.641C67.7491 125.778 65.031 119.184 65.0242 112.307L65.0242 27.5327ZM67.6982 30.2161L67.6982 112.304C67.6982 112.304 67.6982 112.304 67.6982 112.304C67.7044 118.472 70.1425 124.386 74.4761 128.746C78.8093 133.105 84.6834 135.555 90.8089 135.56C96.9331 135.553 102.806 133.102 107.137 128.743C111.469 124.383 113.906 118.471 113.913 112.304V84.6068C113.913 82.5196 114.736 80.5173 116.204 79.0402C117.672 77.5631 119.663 76.7324 121.741 76.7324H149.263C155.389 76.7263 161.263 74.2741 165.595 69.9129C169.927 65.5519 172.363 59.6386 172.367 53.4707C172.361 47.304 169.924 41.3924 165.592 37.033C161.261 32.6736 155.388 30.2224 149.264 30.2161C149.263 30.2161 149.264 30.2161 149.264 30.2161H67.6982ZM136.763 100.265L137.082 100.267C137.408 100.268 137.732 100.302 138.051 100.367L138.068 100.371L138.084 100.375C145.294 102.048 151.713 106.162 156.269 112.028C160.824 117.893 163.24 125.154 163.113 132.596C162.808 150.431 147.962 164.505 130.293 164.505H123.062V172.342C123.061 180.843 119.748 189.006 113.832 195.077C107.916 201.149 99.8694 204.644 91.4199 204.811L91.4067 204.812H90.8093C72.9563 204.812 58.5166 189.69 58.5166 171.721V143.54C58.5134 143.223 58.5726 142.909 58.691 142.614C58.8112 142.316 58.9898 142.045 59.2157 141.818C59.4416 141.59 59.7111 141.41 60.0088 141.289C60.306 141.168 60.6245 141.108 60.9453 141.113L60.9482 141.113C61.309 141.119 61.6644 141.208 61.9869 141.374C62.3075 141.538 62.5853 141.773 62.8008 142.06C63.7922 143.36 64.8746 144.588 66.0394 145.734L66.0459 145.741C66.563 146.256 66.9723 146.87 67.2502 147.547C67.5277 148.222 67.6691 148.946 67.6657 149.676L67.6657 172.34C67.6657 172.34 67.6657 172.34 67.6657 172.34C67.6719 178.508 70.11 184.422 74.4436 188.782C78.7771 193.141 84.6518 195.591 90.7777 195.596H91.4947C104.014 195.208 113.88 184.52 113.88 171.827V163.171C113.88 161.084 114.704 159.082 116.171 157.604C117.639 156.127 119.631 155.297 121.708 155.297H130.334C142.934 155.297 153.541 145.373 153.924 132.762C154.082 127.386 152.389 122.12 149.131 117.858C145.873 113.595 141.251 110.598 136.049 109.374L136.046 109.373C135.051 109.136 134.164 108.572 133.525 107.77C132.886 106.969 132.532 105.977 132.519 104.951C132.51 104.346 132.619 103.745 132.841 103.182C133.064 102.619 133.395 102.105 133.815 101.67C134.235 101.236 134.737 100.889 135.291 100.649C135.743 100.454 136.223 100.333 136.711 100.291L136.763 100.265ZM137.229 102.956L137.077 102.958C136.827 102.961 136.579 103.014 136.349 103.114C136.118 103.213 135.909 103.358 135.734 103.539C135.559 103.72 135.42 103.935 135.327 104.17C135.234 104.406 135.188 104.658 135.192 104.912L135.192 104.914C135.198 105.344 135.346 105.76 135.613 106.094C135.879 106.429 136.249 106.663 136.661 106.762C142.465 108.128 147.619 111.472 151.252 116.225C154.885 120.978 156.773 126.849 156.597 132.842C156.168 146.966 144.315 157.98 130.334 157.98H121.708C120.343 157.98 119.032 158.526 118.065 159.499C117.098 160.472 116.554 161.793 116.554 163.171V171.827C116.554 185.896 105.609 197.855 91.5554 198.278L91.5354 198.279H90.7768C83.9401 198.274 77.3844 195.54 72.5505 190.677C67.7166 185.814 64.9986 179.22 64.9918 172.343L64.9918 149.673L64.9918 149.666C64.9938 149.29 64.9212 148.917 64.7784 148.57C64.6361 148.224 64.4271 147.91 64.1636 147.647C63.1079 146.608 62.1151 145.506 61.1905 144.348V171.721C61.1905 188.277 74.5014 202.128 90.8093 202.128H91.3804C99.1228 201.972 106.497 198.767 111.92 193.201C117.347 187.632 120.387 180.143 120.388 172.341V161.821H130.293C146.558 161.821 160.161 148.866 160.44 132.55C160.556 125.721 158.339 119.058 154.16 113.677C149.984 108.301 144.103 104.53 137.499 102.993C137.41 102.975 137.32 102.963 137.229 102.956Z"
              fill="#10EAB5"/>
    </g>
    <g clip-path="url(#clip0_86_643)">
        <path d="M37.941 234.944C37.941 236.744 37.2521 238.469 36.0259 239.742C34.7997 241.014 33.1367 241.729 31.4026 241.729H7.60272V254.544H32.4632C32.4632 256.272 31.8015 257.93 30.6237 259.152C29.4459 260.374 27.8484 261.061 26.1827 261.061H7.60636V279.375H0.00720215V234.944H37.941Z"
              fill="white"/>
        <path d="M56.2523 280.144C53.331 280.176 50.4548 279.395 47.9231 277.883C45.4243 276.383 43.3584 274.216 41.9404 271.607C40.4306 268.788 39.6673 265.605 39.7282 262.38C39.7282 258.815 40.4765 255.694 41.9731 253.018C43.4242 250.39 45.536 248.221 48.0829 246.742C50.7396 245.212 53.737 244.432 56.7753 244.481C60.3472 244.481 63.1672 245.281 65.2353 246.881C67.3237 248.507 68.8817 250.758 69.6996 253.331C70.6349 256.246 71.0929 259.304 71.0545 262.377C71.0417 264.393 70.7743 266.399 70.259 268.343C69.7342 270.394 68.8861 272.342 67.749 274.106C66.5802 275.91 65.0169 277.402 63.1867 278.459C61.2954 279.583 58.9839 280.144 56.2523 280.144ZM58.5662 273.835C61.0314 273.835 63.1467 273.332 64.9121 272.327C66.5972 271.397 67.9854 269.979 68.9078 268.245C69.8324 266.441 70.2987 264.423 70.2627 262.38C70.2627 259.958 69.8001 257.889 68.8751 256.173C67.9601 254.468 66.5663 253.092 64.8794 252.23C63.1406 251.313 61.0363 250.856 58.5662 250.858C54.9967 250.858 52.2421 251.921 50.3024 254.047C48.3626 256.173 47.394 258.95 47.3964 262.38C47.3555 264.453 47.8455 266.501 48.8166 268.313C49.7471 270.01 51.1077 271.41 52.7506 272.361C54.5314 273.372 56.5368 273.88 58.5662 273.835ZM77.7382 245.231V279.39H70.7966C70.6174 277.654 70.4854 276.146 70.4007 274.867C70.3099 273.586 70.2663 272.376 70.2663 271.23V252.988C70.2658 251.969 70.4587 250.96 70.834 250.019C71.2093 249.078 71.7596 248.223 72.4535 247.503C73.1474 246.782 73.9712 246.211 74.878 245.821C75.7848 245.431 76.7567 245.231 77.7382 245.231Z"
              fill="white"/>
        <path d="M85.8604 245.23C86.8414 245.23 87.8129 245.431 88.7192 245.821C89.6256 246.21 90.449 246.781 91.1426 247.501C91.8361 248.221 92.3861 249.076 92.7612 250.017C93.1363 250.958 93.3292 251.965 93.3287 252.983V279.39H85.8604V245.23ZM107.292 244.477C109.107 244.457 110.914 244.736 112.646 245.302C114.205 245.807 115.639 246.662 116.845 247.805C118.041 248.969 118.968 250.4 119.555 251.989C120.229 253.863 120.554 255.853 120.514 257.853V279.39H113.042V259.361C113.042 256.572 112.392 254.503 111.091 253.153C109.791 251.804 107.733 251.129 104.916 251.129C102.907 251.104 100.923 251.587 99.1334 252.535C97.4704 253.406 96.014 254.648 94.8689 256.172C93.8027 257.564 93.1377 259.241 92.9509 261.008L92.8856 257.303C93.1053 255.618 93.5965 253.983 94.3385 252.467C95.0937 250.927 96.1003 249.535 97.3135 248.351C98.5869 247.116 100.08 246.149 101.709 245.506C103.491 244.804 105.385 244.455 107.292 244.477Z"
              fill="white"/>
        <path d="M127.18 268.139H134.121C134.475 269.832 135.446 271.318 136.831 272.285C138.284 273.363 140.245 273.901 142.716 273.898C144.001 273.95 145.285 273.776 146.515 273.386C147.301 273.14 147.972 272.604 148.4 271.878C148.753 271.218 148.936 270.474 148.931 269.718C148.956 269.291 148.896 268.863 148.754 268.461C148.611 268.059 148.389 267.693 148.103 267.385C147.394 266.749 146.559 266.28 145.658 266.013C144.351 265.592 143.015 265.272 141.662 265.056C139.986 264.641 138.355 264.195 136.769 263.718C135.267 263.276 133.824 262.643 132.472 261.833C131.257 261.117 130.216 260.12 129.432 258.92C128.652 257.639 128.261 256.144 128.309 254.63C128.291 253.152 128.656 251.695 129.366 250.413C130.097 249.129 131.104 248.038 132.309 247.224C133.671 246.308 135.166 245.624 136.737 245.2C138.537 244.707 140.392 244.465 142.254 244.48C145.16 244.48 147.582 244.96 149.519 245.92C151.346 246.775 152.879 248.187 153.914 249.968C154.925 251.779 155.44 253.842 155.404 255.934H148.865C148.512 254.153 147.829 252.85 146.817 252.026C145.804 251.202 144.262 250.79 142.189 250.79C140.162 250.79 138.619 251.156 137.561 251.89C137.072 252.195 136.669 252.628 136.391 253.145C136.113 253.662 135.97 254.246 135.977 254.838C135.957 255.288 136.038 255.737 136.216 256.149C136.394 256.56 136.663 256.922 137.002 257.205C137.884 257.877 138.883 258.366 139.944 258.644C141.218 259.034 142.737 259.435 144.503 259.847C146.091 260.259 147.601 260.715 149.032 261.215C150.37 261.675 151.655 262.286 152.865 263.036C153.969 263.724 154.898 264.676 155.574 265.813C156.295 267.102 156.65 268.576 156.599 270.065C156.648 272.013 156.066 273.921 154.946 275.485C153.724 277.085 152.085 278.287 150.224 278.949C148.175 279.748 145.718 280.148 142.854 280.148C140.609 280.196 138.369 279.897 136.21 279.258C134.563 278.756 133.01 277.967 131.618 276.925C130.495 276.086 129.531 275.04 128.774 273.838C128.167 272.866 127.71 271.802 127.419 270.683C127.189 269.858 127.107 268.995 127.18 268.139Z"
              fill="white"/>
        <path d="M198.176 268.139C197.844 270.423 196.919 272.569 195.499 274.347C193.961 276.234 191.997 277.696 189.781 278.602C187.401 279.633 184.536 280.146 181.187 280.144C177.356 280.144 173.966 279.424 171.016 277.984C168.184 276.653 165.768 274.526 164.042 271.844C162.347 269.196 161.499 266.041 161.499 262.38C161.499 258.769 162.325 255.614 163.976 252.916C165.642 250.205 168.015 248.041 170.82 246.674C173.726 245.207 177.097 244.474 180.933 244.477C184.856 244.477 188.15 245.196 190.817 246.636C193.436 248.028 195.522 250.302 196.734 253.085C198.01 255.942 198.538 259.543 198.318 263.888H169.044C169.236 265.736 169.871 267.505 170.893 269.033C171.938 270.569 173.35 271.798 174.99 272.598C176.895 273.509 178.977 273.956 181.074 273.902C183.627 273.902 185.775 273.365 187.518 272.289C187.875 272.071 188.219 271.829 188.546 271.565C191.301 269.347 194.689 268.141 198.176 268.139ZM180.74 250.718C177.701 250.718 175.21 251.472 173.268 252.98C171.386 254.398 170.051 256.465 169.501 258.811H190.838C190.618 256.248 189.605 254.257 187.798 252.84C185.991 251.423 183.634 250.716 180.726 250.718H180.74Z"
              fill="white"/>
        <path d="M239.818 268.139C239.487 270.423 238.561 272.569 237.141 274.347C235.604 276.235 233.64 277.697 231.424 278.602C229.043 279.633 226.178 280.146 222.829 280.144C218.996 280.144 215.606 279.424 212.658 277.984C209.827 276.652 207.412 274.526 205.684 271.844C203.989 269.196 203.141 266.041 203.141 262.38C203.141 258.769 203.967 255.614 205.619 252.916C207.284 250.206 209.656 248.042 212.459 246.674C215.365 245.207 218.737 244.474 222.575 244.477C226.493 244.477 229.787 245.196 232.455 246.636C235.075 248.028 237.161 250.302 238.373 253.085C239.651 255.942 240.18 259.543 239.96 263.888H210.675C210.868 265.736 211.505 267.505 212.528 269.033C213.573 270.569 214.985 271.798 216.625 272.598C218.529 273.509 220.61 273.956 222.706 273.902C225.263 273.902 227.411 273.365 229.15 272.289C229.507 272.072 229.851 271.83 230.178 271.565C232.936 269.345 236.328 268.14 239.818 268.139ZM222.383 250.718C219.341 250.718 216.852 251.472 214.914 252.98C213.032 254.398 211.697 256.465 211.147 258.811H232.495C232.277 256.248 231.264 254.257 229.455 252.84C227.646 251.423 225.284 250.716 222.368 250.718H222.383Z"
              fill="white"/>
    </g>
    <path d="M66.7689 324.547L56.9996 300.103H61.7827L70.0855 321.605L68.6867 321.65L76.6284 300.125H81.5469L89.4886 321.65L88.0898 321.605L96.3926 300.103H101.063L91.4064 324.547H86.2623L78.4334 303.09H79.7419L71.913 324.547H66.7689Z"
          fill="white"/>
    <path d="M110.246 324.955C108.509 324.955 106.929 324.548 105.508 323.71C104.087 322.873 102.936 321.741 102.101 320.27C101.266 318.799 100.838 317.101 100.838 315.2C100.838 313.299 101.266 311.533 102.124 310.062C102.981 308.591 104.132 307.437 105.598 306.622C107.065 305.784 108.712 305.377 110.539 305.377C112.57 305.377 114.172 305.807 115.345 306.69C116.518 307.572 117.376 308.749 117.872 310.243C118.391 311.737 118.639 313.389 118.639 315.223C118.639 316.286 118.481 317.373 118.188 318.504C117.895 319.636 117.421 320.7 116.766 321.673C116.112 322.646 115.255 323.461 114.172 324.072C113.089 324.683 111.78 325 110.223 325L110.246 324.955ZM111.555 321.492C112.953 321.492 114.172 321.221 115.165 320.655C116.157 320.111 116.924 319.365 117.443 318.414C117.962 317.463 118.21 316.4 118.21 315.2C118.21 313.865 117.94 312.733 117.421 311.782C116.902 310.832 116.135 310.107 115.142 309.609C114.149 309.112 112.953 308.863 111.555 308.863C109.524 308.863 107.967 309.451 106.862 310.605C105.756 311.76 105.215 313.299 105.215 315.177C105.215 316.4 105.486 317.486 106.027 318.437C106.568 319.387 107.313 320.111 108.261 320.655C109.208 321.198 110.314 321.47 111.577 321.47L111.555 321.492ZM118.21 305.762H122.452V324.548H118.504C118.413 323.597 118.323 322.76 118.278 322.058C118.233 321.356 118.21 320.677 118.21 320.066V305.784V305.762Z"
          fill="white"/>
    <path d="M127.461 298.224H131.703V324.547H127.461V298.224Z" fill="white"/>
    <path d="M137.14 298.224H141.381V324.547H137.14V298.224Z" fill="white"/>
    <path d="M162.206 318.368H166.312C166.109 319.658 165.613 320.79 164.8 321.786C163.988 322.781 162.905 323.551 161.551 324.117C160.198 324.683 158.573 324.954 156.655 324.954C154.467 324.954 152.549 324.57 150.857 323.777C149.188 322.985 147.856 321.853 146.886 320.405C145.916 318.956 145.442 317.214 145.442 315.199C145.442 313.185 145.916 311.487 146.841 309.993C147.789 308.5 149.075 307.368 150.722 306.553C152.369 305.738 154.286 305.354 156.475 305.354C158.663 305.354 160.581 305.738 162.093 306.53C163.605 307.323 164.733 308.5 165.455 310.084C166.177 311.646 166.492 313.637 166.357 316.014H149.706C149.842 317.078 150.18 318.006 150.767 318.843C151.353 319.681 152.121 320.337 153.091 320.812C154.061 321.288 155.212 321.537 156.543 321.537C157.987 321.537 159.228 321.242 160.198 320.654C161.19 320.065 161.845 319.296 162.183 318.368H162.206ZM156.385 308.794C154.647 308.794 153.249 309.201 152.143 310.039C151.038 310.876 150.316 311.94 150 313.253H162.138C162.003 311.849 161.439 310.74 160.401 309.971C159.363 309.201 158.032 308.794 156.385 308.794Z"
          fill="white"/>
    <path d="M168.478 305.761H181.834V309.224H168.478V305.761ZM173.035 300.714H177.277V324.547H173.035V300.714Z"
          fill="white"/>
    <defs>
        <filter id="filter0_d_86_643" x="38.9996" y="0" width="162" height="222.799" filterUnits="userSpaceOnUse"
                color-interpolation-filters="sRGB">
            <feFlood flood-opacity="0" result="BackgroundImageFix"/>
            <feColorMatrix in="SourceAlpha" type="matrix" values="0 0 0 0 0 0 0 0 0 0 0 0 0 0 0 0 0 0 127 0"
                           result="hardAlpha"/>
            <feOffset/>
            <feGaussianBlur stdDeviation="10.5"/>
            <feComposite in2="hardAlpha" operator="out"/>
            <feColorMatrix type="matrix" values="0 0 0 0 0.0627451 0 0 0 0 0.917647 0 0 0 0 0.709804 0 0 0 1 0"/>
            <feBlend mode="normal" in2="BackgroundImageFix" result="effect1_dropShadow_86_643"/>
            <feBlend mode="normal" in="SourceGraphic" in2="effect1_dropShadow_86_643" result="shape"/>
        </filter>
        <filter id="filter1_d_86_643" x="37.5004" y="0" width="165" height="225.812" filterUnits="userSpaceOnUse"
                color-interpolation-filters="sRGB">
            <feFlood flood-opacity="0" result="BackgroundImageFix"/>
            <feColorMatrix in="SourceAlpha" type="matrix" values="0 0 0 0 0 0 0 0 0 0 0 0 0 0 0 0 0 0 127 0"
                           result="hardAlpha"/>
            <feOffset/>
            <feGaussianBlur stdDeviation="10.5"/>
            <feComposite in2="hardAlpha" operator="out"/>
            <feColorMatrix type="matrix" values="0 0 0 0 0.0627451 0 0 0 0 0.917647 0 0 0 0 0.709804 0 0 0 1 0"/>
            <feBlend mode="normal" in2="BackgroundImageFix" result="effect1_dropShadow_86_643"/>
            <feBlend mode="normal" in="SourceGraphic" in2="effect1_dropShadow_86_643" result="shape"/>
        </filter>
        <clipPath id="clip0_86_643">
            <rect width="240" height="45.1996" fill="white" transform="translate(0 234.944)"/>
        </clipPath>
    </defs>
</svg>
