<svg width="24" height="24" viewBox="0 0 24 24" fill="none" xmlns="http://www.w3.org/2000/svg">
<path d="M17.625 8.25008H12.75V15.047C12.75 15.2459 12.671 15.4366 12.5303 15.5773C12.3897 15.7179 12.1989 15.797 12 15.797C11.8011 15.797 11.6103 15.7179 11.4697 15.5773C11.329 15.4366 11.25 15.2459 11.25 15.047V8.25008H6.375C5.67904 8.25082 5.01179 8.52762 4.51967 9.01975C4.02755 9.51187 3.75074 10.1791 3.75 10.8751V19.8751C3.75074 20.571 4.02755 21.2383 4.51967 21.7304C5.01179 22.2225 5.67904 22.4993 6.375 22.5001H17.625C18.321 22.4993 18.9882 22.2225 19.4803 21.7304C19.9725 21.2383 20.2493 20.571 20.25 19.8751V10.8751C20.2493 10.1791 19.9725 9.51187 19.4803 9.01975C18.9882 8.52762 18.321 8.25082 17.625 8.25008Z" fill="currentColor"/>
<path d="M12.75 4.06086L15.2198 6.53024C15.3616 6.66495 15.5505 6.73894 15.746 6.73644C15.9416 6.73394 16.1285 6.65513 16.2668 6.51683C16.4051 6.37853 16.4839 6.19167 16.4864 5.9961C16.4889 5.80053 16.4149 5.61172 16.2802 5.46992L12.5302 1.71992C12.3895 1.57938 12.1988 1.50043 12 1.50043C11.8012 1.50043 11.6105 1.57938 11.4698 1.71992L7.71984 5.46992C7.58513 5.61172 7.51114 5.80053 7.51364 5.9961C7.51614 6.19167 7.59495 6.37853 7.73325 6.51683C7.87155 6.65513 8.0584 6.73394 8.25398 6.73644C8.44955 6.73894 8.63836 6.66495 8.78016 6.53024L11.25 4.06086V8.25008H12.75V4.06086Z" fill="currentColor"/>
</svg>
