<svg width="18" height="18" viewBox="0 0 18 18" fill="none" xmlns="http://www.w3.org/2000/svg">
<g opacity="0.4" clip-path="url(#clip0_1_278)">
<path d="M9 3.79622C10.0365 3.79601 11.0499 4.10321 11.9118 4.67895C12.7738 5.2547 13.4456 6.07312 13.8424 7.03073C14.2391 7.98833 14.343 9.04208 14.1408 10.0587C13.9386 11.0754 13.4395 12.0092 12.7066 12.7421C11.9736 13.4751 11.0398 13.9742 10.0232 14.1764C9.00652 14.3785 7.95276 14.2747 6.99516 13.8779C6.03756 13.4811 5.21913 12.8093 4.64339 11.9474C4.06765 11.0854 3.76046 10.0721 3.76066 9.03557C3.76234 7.64652 4.31488 6.31484 5.29709 5.33264C6.27929 4.35043 7.61096 3.79789 9 3.79622ZM9 2.73926C7.75446 2.73926 6.5369 3.10862 5.50128 3.80063C4.46566 4.49264 3.65851 5.47622 3.1819 6.62697C2.7053 7.77773 2.58065 9.04397 2.82372 10.2656C3.06679 11.4872 3.66667 12.6092 4.54747 13.4899C5.42828 14.3706 6.55046 14.9702 7.7721 15.2131C8.99374 15.456 10.26 15.3311 11.4106 14.8543C12.5613 14.3775 13.5447 13.5702 14.2366 12.5345C14.9284 11.4987 15.2976 10.2811 15.2974 9.03557C15.2974 8.20863 15.1345 7.3898 14.818 6.62582C14.5015 5.86185 14.0376 5.16772 13.4529 4.58304C12.8681 3.99836 12.1738 3.5346 11.4098 3.21824C10.6458 2.90189 9.82693 2.73912 9 2.73926Z" fill="white"/>
<path d="M9 -0.00195312C8.85515 -0.00167378 8.71632 0.0559916 8.61391 0.15841C8.51149 0.260828 8.45384 0.399658 8.45356 0.544499V1.04338C8.45356 1.11514 8.46769 1.1862 8.49515 1.2525C8.52261 1.3188 8.56287 1.37904 8.61361 1.42978C8.66435 1.48052 8.72459 1.52077 8.79089 1.54823C8.85719 1.5757 8.92823 1.58983 9 1.58983C9.07176 1.58983 9.14282 1.5757 9.20912 1.54823C9.27541 1.52077 9.33565 1.48052 9.38639 1.42978C9.43714 1.37904 9.47739 1.3188 9.50485 1.2525C9.53231 1.1862 9.54645 1.11514 9.54645 1.04338V0.544499C9.54645 0.399572 9.48887 0.260579 9.38639 0.1581C9.28392 0.0556214 9.14492 -0.00195312 9 -0.00195312Z" fill="white"/>
<path d="M9 16.4082C8.85507 16.4082 8.71609 16.4658 8.61361 16.5683C8.51113 16.6707 8.45356 16.8097 8.45356 16.9547V17.4535C8.45356 17.5253 8.46769 17.5963 8.49515 17.6626C8.52261 17.7289 8.56287 17.7892 8.61361 17.8399C8.66435 17.8907 8.72459 17.9309 8.79089 17.9584C8.85719 17.9859 8.92823 18 9 18C9.07176 18 9.14282 17.9859 9.20912 17.9584C9.27541 17.9309 9.33565 17.8907 9.38639 17.8399C9.43714 17.7892 9.47739 17.7289 9.50485 17.6626C9.53231 17.5963 9.54645 17.5253 9.54645 17.4535V16.9547C9.54659 16.8829 9.53255 16.8117 9.50513 16.7454C9.47772 16.679 9.43747 16.6187 9.3867 16.5679C9.33593 16.5172 9.27564 16.4769 9.20928 16.4495C9.14292 16.4221 9.07179 16.4081 9 16.4082Z" fill="white"/>
<path d="M1.05167 8.45312H0.551733C0.406807 8.45313 0.267813 8.5107 0.165335 8.61318C0.062856 8.71566 0.00528145 8.85465 0.00528145 8.99958C0.00528145 9.1445 0.062856 9.28348 0.165335 9.38596C0.267813 9.48844 0.406807 9.54602 0.551733 9.54602H1.05167C1.1966 9.54602 1.33559 9.48844 1.43807 9.38596C1.54055 9.28348 1.59812 9.1445 1.59812 8.99958C1.59812 8.85465 1.54055 8.71566 1.43807 8.61318C1.33559 8.5107 1.1966 8.45313 1.05167 8.45312Z" fill="white"/>
<path d="M17.4536 8.45312H16.9547C16.8097 8.45313 16.6707 8.5107 16.5683 8.61318C16.4658 8.71566 16.4082 8.85465 16.4082 8.99958C16.4082 9.1445 16.4658 9.28348 16.5683 9.38596C16.6707 9.48844 16.8097 9.54602 16.9547 9.54602H17.4536C17.5985 9.54602 17.7375 9.48844 17.8399 9.38596C17.9424 9.28348 18 9.1445 18 8.99958C18 8.85465 17.9424 8.71566 17.8399 8.61318C17.7375 8.5107 17.5985 8.45313 17.4536 8.45312Z" fill="white"/>
<path d="M3.0229 2.47656C2.95097 2.47708 2.87985 2.49182 2.81364 2.51994C2.74743 2.54806 2.68743 2.589 2.63711 2.6404C2.53468 2.74287 2.47713 2.88183 2.47713 3.02672C2.47713 3.17161 2.53468 3.31057 2.63711 3.41304L2.99013 3.76606C3.04073 3.81703 3.10091 3.85749 3.16722 3.8851C3.23352 3.9127 3.30463 3.92691 3.37645 3.92691C3.44827 3.92691 3.51939 3.9127 3.58569 3.8851C3.65199 3.85749 3.71218 3.81703 3.76277 3.76606C3.8652 3.66359 3.92275 3.52463 3.92275 3.37974C3.92275 3.23485 3.8652 3.09589 3.76277 2.99342L3.40975 2.6404C3.35922 2.58957 3.29909 2.54929 3.23286 2.52189C3.16664 2.49449 3.09563 2.48053 3.02396 2.48079L3.0229 2.47656Z" fill="white"/>
<path d="M14.6251 14.0771C14.5172 14.0775 14.4117 14.1097 14.322 14.1698C14.2323 14.23 14.1624 14.3153 14.121 14.415C14.0797 14.5148 14.0687 14.6245 14.0896 14.7305C14.1105 14.8364 14.1622 14.9338 14.2383 15.0105L14.5913 15.3635C14.6945 15.4625 14.8323 15.5172 14.9753 15.5158C15.1184 15.5143 15.2551 15.4569 15.3562 15.3558C15.4574 15.2546 15.5148 15.1179 15.5163 14.9749C15.5177 14.8319 15.463 14.694 15.3639 14.5908L15.0109 14.2378C14.9604 14.1869 14.9003 14.1465 14.8341 14.119C14.7679 14.0914 14.6969 14.0772 14.6251 14.0771Z" fill="white"/>
<path d="M3.37698 14.0771C3.3051 14.0772 3.23393 14.0914 3.16755 14.1189C3.10117 14.1465 3.04088 14.1869 2.99013 14.2378L2.63711 14.5908C2.53468 14.6933 2.47713 14.8323 2.47713 14.9771C2.47713 15.122 2.53468 15.261 2.63711 15.3635C2.73972 15.4656 2.87863 15.523 3.02343 15.523C3.16823 15.523 3.30714 15.4656 3.40975 15.3635L3.76277 15.0105C3.8652 14.908 3.92275 14.769 3.92275 14.6241C3.92275 14.4792 3.8652 14.3403 3.76277 14.2378C3.71222 14.1869 3.65212 14.1465 3.58591 14.119C3.5197 14.0914 3.4487 14.0772 3.37698 14.0771Z" fill="white"/>
<path d="M14.9782 2.47657C14.9063 2.47633 14.8352 2.49032 14.7688 2.51771C14.7024 2.5451 14.6421 2.58536 14.5913 2.63617L14.2383 2.9892C14.1859 3.03955 14.144 3.09986 14.1152 3.16658C14.0864 3.23331 14.0711 3.30511 14.0704 3.37779C14.0697 3.45048 14.0834 3.52258 14.1109 3.58987C14.1384 3.65716 14.179 3.7183 14.2304 3.7697C14.2818 3.8211 14.343 3.86172 14.4102 3.8892C14.4775 3.91668 14.5496 3.93045 14.6223 3.92972C14.695 3.92898 14.7668 3.91376 14.8335 3.88493C14.9003 3.8561 14.9606 3.81425 15.0109 3.76183L15.3639 3.40881C15.4401 3.33239 15.492 3.23513 15.513 3.12929C15.5339 3.02345 15.5231 2.91377 15.4819 2.81406C15.4406 2.71436 15.3708 2.62911 15.2811 2.56905C15.1915 2.50899 15.0861 2.4768 14.9782 2.47657Z" fill="white"/>
</g>
<defs>
<clipPath id="clip0_1_278">
<rect width="18" height="18" fill="white"/>
</clipPath>
</defs>
</svg>
