<svg width="14" height="14" viewBox="0 0 14 14" fill="none" xmlns="http://www.w3.org/2000/svg">
    <g clip-path="url(#clip0_91_681)">
        <path d="M4.11778 1.64369C4.01751 2.23377 3.98728 2.83313 4.0277 3.42994C4.15822 5.28801 4.97486 7.03731 6.32675 8.35468C7.67865 9.67206 9.47445 10.4685 11.3824 10.5969C11.5601 10.6078 11.7403 10.6139 11.9179 10.6139C12.0168 10.6139 12.1156 10.6139 12.2145 10.6139C11.6315 11.2901 10.9041 11.8343 10.0829 12.2085C9.26164 12.5827 8.36648 12.7778 7.45982 12.7803H7.28465C5.95607 12.7465 4.67376 12.2981 3.62661 11.5011C2.57945 10.7042 1.82281 9.60078 1.46813 8.35351C1.11345 7.10623 1.17948 5.78101 1.6565 4.57303C2.13352 3.36505 2.99631 2.33819 4.11778 1.64369V1.64369ZM4.84225 -0.00487633C4.73694 -0.0044262 4.63275 0.0162776 4.53569 0.0560462C2.97152 0.704895 1.68211 1.85491 0.881266 3.31537C0.0804254 4.77583 -0.183713 6.45898 0.132651 8.0857C0.449015 9.71242 1.32687 11.185 2.62064 12.2591C3.91442 13.3333 5.54637 13.9445 7.24585 13.9915C7.31592 13.9915 7.386 13.9915 7.45607 13.9915C8.75987 13.9922 10.041 13.6595 11.1714 13.0268C12.3018 12.3941 13.2418 11.4835 13.8974 10.3861C13.9639 10.2734 13.9987 10.1456 13.9983 10.0156C13.9978 9.88567 13.9622 9.75811 13.8949 9.64586C13.8276 9.53361 13.7311 9.44064 13.6151 9.37635C13.4991 9.31207 13.3677 9.27873 13.2342 9.27972C13.1864 9.27965 13.1387 9.28373 13.0916 9.29191C12.7042 9.35905 12.3114 9.39289 11.9179 9.39304C11.7678 9.39304 11.6176 9.39304 11.465 9.37841C10.4591 9.31141 9.48189 9.0228 8.60722 8.53434C7.73255 8.04588 6.98323 7.37034 6.41581 6.5587C5.8484 5.74706 5.4777 4.82052 5.3317 3.849C5.18569 2.87747 5.26818 1.88634 5.57296 0.950392C5.60815 0.839357 5.61598 0.721811 5.59581 0.607279C5.57564 0.492747 5.52805 0.384452 5.45688 0.291177C5.38571 0.197901 5.29299 0.122266 5.1862 0.0704067C5.07941 0.0185476 4.96157 -0.00807339 4.84225 -0.00730818V-0.00487633Z"
              fill="currentColor"/>
    </g>
    <defs>
        <clipPath id="clip0_91_681">
            <rect width="14" height="14" fill="currentColor"/>
        </clipPath>
    </defs>
</svg>
