<svg width="36" height="46" viewBox="0 0 36 46" fill="none" xmlns="http://www.w3.org/2000/svg">
    <path d="M30.2727 14.7852H19.6364V29.6738C19.6364 30.1096 19.464 30.5274 19.1571 30.8355C18.8502 31.1436 18.434 31.3167 18 31.3167C17.566 31.3167 17.1498 31.1436 16.8429 30.8355C16.536 30.5274 16.3636 30.1096 16.3636 29.6738V14.7852H5.72727C4.2088 14.7868 2.75299 15.3932 1.67927 16.4712C0.605553 17.5492 0.00162432 19.0108 0 20.5353V40.2499C0.00162432 41.7744 0.605553 43.236 1.67927 44.314C2.75299 45.392 4.2088 45.9984 5.72727 46H30.2727C31.7912 45.9984 33.247 45.392 34.3207 44.314C35.3944 43.236 35.9984 41.7744 36 40.2499V20.5353C35.9984 19.0108 35.3944 17.5492 34.3207 16.4712C33.247 15.3932 31.7912 14.7868 30.2727 14.7852Z"
          fill="currentColor"/>
    <path d="M19.6364 5.60866L25.0251 11.0179C25.3345 11.313 25.7464 11.475 26.1731 11.4696C26.5998 11.4641 27.0075 11.2914 27.3093 10.9885C27.611 10.6855 27.783 10.2762 27.7884 9.84784C27.7939 9.41943 27.6324 9.00584 27.3385 8.69523L19.1567 0.480809C18.8499 0.172941 18.4338 0 18 0C17.5662 0 17.1501 0.172941 16.8433 0.480809L8.66148 8.69523C8.36755 9.00584 8.20611 9.41943 8.21158 9.84784C8.21704 10.2762 8.38897 10.6855 8.69072 10.9885C8.99247 11.2914 9.40016 11.4641 9.82686 11.4696C10.2536 11.475 10.6655 11.313 10.9749 11.0179L16.3636 5.60866V14.7852H19.6364V5.60866Z"
          fill="currentColor"/>
</svg>
