<svg width="50" height="40" viewBox="0 0 50 40" fill="none" xmlns="http://www.w3.org/2000/svg">
<path d="M43.3891 0.0023181C37.2712 -0.00289762 31.1533 0.0023181 25.0353 0.0023181C18.8568 0.0023181 12.6765 -0.00289762 6.49799 0.00405667C2.62747 0.00753382 0.00367222 2.50586 0.00183611 6.17773C0 13.1598 0 20.1402 0 27.1206C0 31.1349 2.56321 33.5742 6.78809 33.5776C10.7339 33.5811 14.6797 33.595 18.6255 33.5655C19.3838 33.5603 19.8538 33.755 20.2321 34.4174C21.1483 36.0203 22.149 37.5816 23.135 39.1498C23.8382 40.2694 24.7048 40.2903 25.4228 39.1706C26.4234 37.6129 27.3929 36.0342 28.3293 34.44C28.7002 33.8071 29.1666 33.5585 29.9396 33.5637C34.405 33.5933 38.8723 33.5829 43.3377 33.5759C47.3881 33.5689 49.9954 31.0932 49.9972 27.2597C50.0009 20.2497 50.0009 13.2398 49.9972 6.23162C49.9972 2.41198 47.4451 0.00579524 43.3891 0.0023181ZM24.3725 6.76884C27.3433 6.76884 29.7229 9.05159 29.7229 11.9011C29.7229 14.7506 27.3415 17.0334 24.3725 17.0334C21.4035 17.0334 19.0221 14.7506 19.0221 11.9011C19.0221 9.05159 21.4035 6.76884 24.3725 6.76884ZM24.3725 26.1661C19.9879 26.1661 16.2863 25.4811 16.2863 22.8437C16.2863 20.2063 20.0099 19.5456 24.3725 19.5456C28.7351 19.5456 32.4587 20.2289 32.4587 22.868C32.4587 25.5072 28.7333 26.1678 24.3725 26.1678V26.1661ZM36.8801 15.8651H35.582V17.0664C35.582 17.5793 35.1486 17.9965 34.6125 17.9965C34.0763 17.9965 33.643 17.5793 33.643 17.0664V15.8651H32.3486C31.8143 15.8651 31.3791 15.4478 31.3791 14.9349C31.3791 14.422 31.8124 14.0048 32.3486 14.0048H33.643V12.8034C33.643 12.2906 34.0782 11.8733 34.6125 11.8733C35.1468 11.8733 35.582 12.2906 35.582 12.8034V14.0048H36.8801C37.4144 14.0048 37.8495 14.422 37.8495 14.9349C37.8495 15.4478 37.4144 15.8651 36.8801 15.8651Z" fill="currentColor"/>
</svg>
