<svg width="54" height="38" viewBox="0 0 54 38" fill="none" xmlns="http://www.w3.org/2000/svg">
<path fill-rule="evenodd" clip-rule="evenodd" d="M23.7612 0.223266C24.1198 0.0750375 24.5042 -0.000834587 24.8922 6.92395e-06H49.3602C49.7482 -0.000834587 50.1326 0.0750375 50.4912 0.223266C50.8499 0.371495 51.1757 0.589163 51.4501 0.863773C51.7245 1.13838 51.9419 1.46453 52.09 1.82348C52.2381 2.18244 52.3139 2.56714 52.3131 2.95549C52.3139 3.34385 52.2381 3.72855 52.09 4.0875C51.9419 4.44646 51.7245 4.7726 51.4501 5.04721C51.1757 5.32182 50.8499 5.53949 50.4912 5.68772C50.1326 5.83595 49.7482 5.91182 49.3602 5.91098H24.8922C23.2563 5.91098 21.9393 4.59282 21.9393 2.95549C21.9385 2.56714 22.0143 2.18244 22.1624 1.82348C22.3105 1.46453 22.5279 1.13838 22.8023 0.863773C23.0767 0.589163 23.4025 0.371495 23.7612 0.223266ZM4.69872 10.6129C7.70417 7.6042 11.7796 5.91201 16.0304 5.90778C20.2811 5.91201 24.3565 7.6042 27.362 10.6129C30.3674 13.6216 32.0573 17.701 32.0607 21.9555C32.0607 30.806 24.873 38 16.0304 38C7.18767 38 0 30.806 0 21.9555C0.0033769 17.701 1.69327 13.6216 4.69872 10.6129ZM31.6015 13.5103C30.3235 11.1761 28.5412 9.1567 26.3846 7.59937H44.29C44.678 7.59853 45.0623 7.6744 45.421 7.82263C45.7796 7.97086 46.1055 8.18852 46.3798 8.46313C46.6542 8.73774 46.8717 9.06389 47.0198 9.42284C47.1679 9.7818 47.2437 10.1665 47.2428 10.5548C47.2437 10.9429 47.168 11.3274 47.0201 11.6861C46.8722 12.0449 46.655 12.3709 46.3809 12.6454C46.1069 12.92 45.7814 13.1377 45.4232 13.2862C45.0649 13.4346 44.6809 13.5108 44.2931 13.5103H31.6015ZM33.7285 21.1097C33.6296 19.0287 33.1704 17.0371 32.4083 15.1987H51.0471C51.4351 15.1979 51.8195 15.2738 52.1781 15.422C52.5368 15.5702 52.8626 15.7879 53.137 16.0625C53.4114 16.3371 53.6288 16.6632 53.7769 17.0222C53.925 17.3812 54.0008 17.7659 54 18.1542C54.0008 18.5428 53.9249 18.9278 53.7766 19.287C53.6283 19.6461 53.4106 19.9724 53.1359 20.2471C52.8612 20.5217 52.5349 20.7393 52.1759 20.8874C51.8169 21.0354 51.4322 21.111 51.0439 21.1097H33.7285ZM32.4083 28.7091C33.1867 26.83 33.6334 24.83 33.7285 22.7981H51.0471C51.4351 22.7972 51.8195 22.8731 52.1781 23.0213C52.5368 23.1696 52.8626 23.3872 53.137 23.6618C53.4114 23.9365 53.6288 24.2626 53.7769 24.6216C53.925 24.9805 54.0008 25.3652 54 25.7536C54.0008 26.1419 53.925 26.5266 53.7769 26.8856C53.6288 27.2445 53.4114 27.5707 53.137 27.8453C52.8626 28.1199 52.5368 28.3376 52.1781 28.4858C51.8195 28.634 51.4351 28.7099 51.0471 28.7091H32.4083ZM26.4069 36.2925C28.5545 34.7385 30.3299 32.726 31.6047 30.4006L51.0439 30.3974C51.4322 30.3962 51.8169 30.4717 52.1759 30.6198C52.5349 30.7678 52.8612 30.9854 53.1359 31.2601C53.4106 31.5347 53.6283 31.861 53.7766 32.2202C53.9249 32.5793 54.0008 32.9643 54 33.3529C54.0008 33.7416 53.9249 34.1265 53.7766 34.4857C53.6283 34.8448 53.4106 35.1711 53.1359 35.4458C52.8612 35.7204 52.5349 35.938 52.1759 36.0861C51.8169 36.2341 51.4322 36.3097 51.0439 36.3084H26.5791C26.5441 36.3084 26.5113 36.3042 26.4788 36.3C26.4549 36.2969 26.4312 36.2938 26.4069 36.2925ZM20.5301 12.3984H10.0149V22.2392C10.0149 23.182 10.4135 24.0851 11.1262 24.7465C11.8377 25.4106 12.7941 25.7824 13.7947 25.7824C14.7949 25.7824 15.7561 25.4108 16.4637 24.746C17.1758 24.081 17.5746 23.1782 17.5746 22.2392V19.485H20.5301C21.5303 19.485 22.4914 19.1134 23.199 18.4486C23.9111 17.7836 24.31 16.8808 24.31 15.9417C24.31 15.0031 23.9115 14.0959 23.1987 13.4345C22.4883 12.7712 21.5335 12.3995 20.5344 12.3984H20.5301ZM11.2002 22.2392V13.5188H20.5344C21.2271 13.5188 21.8868 13.7769 22.3747 14.2317C22.8615 14.6855 23.1332 15.3014 23.1332 15.9417C23.1332 16.582 22.8615 17.1979 22.3747 17.6517C21.8868 18.1065 21.2271 18.3647 20.5344 18.3647H17.3623C17.1103 18.3647 16.8674 18.4573 16.6843 18.6287C16.4984 18.7987 16.3978 19.0362 16.3978 19.2742V22.2392C16.3978 22.8794 16.1261 23.4953 15.6393 23.9491C15.1514 24.4039 14.4917 24.6621 13.799 24.6621C13.1063 24.6621 12.4466 24.4039 11.9587 23.9491C11.4719 23.4953 11.2002 22.8794 11.2002 22.2392ZM19.1332 20.8812H19.0456L19.0321 20.894C18.9879 20.9017 18.9469 20.9136 18.9119 20.9266C18.826 20.9566 18.7623 21.0061 18.7162 21.0494C18.6567 21.1054 18.6156 21.1715 18.5892 21.2335L18.5879 21.2367L18.5866 21.2399C18.5609 21.3064 18.5469 21.3759 18.5469 21.4474C18.5469 21.5768 18.597 21.7003 18.6784 21.796C18.7596 21.8914 18.8748 21.9623 19.0062 21.9888C19.5945 22.1162 20.1137 22.4304 20.4771 22.8758C20.8405 23.3176 21.0299 23.8666 21.0142 24.4263C20.9708 25.7298 19.7859 26.7747 18.3595 26.7747H17.3666C17.1146 26.7747 16.8717 26.8673 16.6886 27.0388C16.5032 27.2083 16.4021 27.4415 16.4021 27.6843V28.6093C16.4021 29.9268 15.2993 31.046 13.8863 31.0848H13.8033C13.1106 31.0848 12.4509 30.8266 11.963 30.3718C11.4762 29.918 11.2045 29.3021 11.2045 28.6618V26.2341C11.2045 26.1432 11.1849 26.0616 11.1567 25.9873L11.1543 25.9811L11.1515 25.975C11.1152 25.8952 11.0652 25.8239 11.0009 25.7634C10.8659 25.6366 10.7413 25.5114 10.6346 25.3778L10.6251 25.3659L10.614 25.3554L10.6118 25.3534C10.5996 25.3418 10.5645 25.3083 10.5148 25.2849C10.4715 25.2646 10.4208 25.2519 10.3675 25.2519C10.3601 25.2518 10.3387 25.2518 10.3161 25.2546C10.2968 25.257 10.2683 25.2623 10.2371 25.2762C10.1779 25.2986 10.1392 25.3368 10.1326 25.3433C10.1035 25.3706 10.0712 25.4098 10.0525 25.4625C10.0444 25.4854 10.032 25.5265 10.032 25.5757V28.5922C10.0143 30.567 11.7145 32.2091 13.799 32.2091L13.8678 32.2092L13.8716 32.2091C14.8586 32.192 15.8015 31.8117 16.4951 31.1513C17.1894 30.4902 17.5789 29.596 17.5789 28.6659V27.895H18.3509C20.4117 27.895 22.1584 26.3687 22.1952 24.4118C22.2089 23.5982 21.9249 22.8027 21.3902 22.1628C20.856 21.5234 20.1036 21.0739 19.2612 20.8942L19.2553 20.8929L19.2493 20.892C19.2227 20.8878 19.1778 20.8812 19.1332 20.8812Z" fill="currentColor"/>
</svg>
